<?xml version="1.0" encoding="UTF-8"?>
<svg id="Layer_1" data-name="Layer 1" xmlns="http://www.w3.org/2000/svg" xmlns:xlink="http://www.w3.org/1999/xlink" viewBox="0 0 71.08 92.16">
  <defs>
    <style>
      .cls-1 {
        fill: url(#Gradiente_sem_nome_1777-9);
      }

      .cls-1, .cls-2, .cls-3, .cls-4, .cls-5, .cls-6, .cls-7, .cls-8, .cls-9, .cls-10, .cls-11, .cls-12, .cls-13, .cls-14, .cls-15, .cls-16, .cls-17, .cls-18, .cls-19, .cls-20, .cls-21, .cls-22, .cls-23, .cls-24, .cls-25, .cls-26, .cls-27, .cls-28, .cls-29, .cls-30, .cls-31, .cls-32, .cls-33, .cls-34, .cls-35, .cls-36, .cls-37, .cls-38, .cls-39, .cls-40, .cls-41, .cls-42, .cls-43, .cls-44, .cls-45 {
        stroke-miterlimit: 10;
      }

      .cls-1, .cls-2, .cls-4, .cls-5, .cls-6, .cls-7, .cls-8, .cls-9, .cls-10, .cls-11, .cls-12, .cls-13, .cls-14, .cls-46, .cls-16, .cls-17, .cls-18, .cls-19, .cls-20, .cls-21, .cls-22, .cls-23, .cls-24, .cls-25, .cls-26, .cls-27, .cls-28, .cls-29, .cls-30, .cls-31, .cls-32, .cls-33, .cls-34, .cls-35, .cls-36, .cls-37, .cls-38, .cls-39, .cls-40, .cls-41, .cls-42, .cls-43, .cls-44, .cls-45 {
        stroke-width: .75px;
      }

      .cls-1, .cls-2, .cls-4, .cls-5, .cls-6, .cls-7, .cls-8, .cls-9, .cls-10, .cls-11, .cls-13, .cls-14, .cls-16, .cls-17, .cls-18, .cls-19, .cls-20, .cls-21, .cls-22, .cls-23, .cls-24, .cls-25, .cls-26, .cls-27, .cls-28, .cls-29, .cls-30, .cls-31, .cls-32, .cls-33, .cls-34, .cls-35, .cls-36, .cls-37, .cls-38, .cls-39, .cls-40, .cls-41, .cls-42, .cls-43, .cls-44, .cls-45 {
        opacity: .8;
      }

      .cls-1, .cls-2, .cls-5, .cls-6, .cls-8, .cls-10, .cls-11, .cls-18, .cls-19, .cls-22, .cls-25, .cls-26, .cls-27, .cls-28, .cls-32, .cls-33, .cls-34, .cls-35, .cls-43, .cls-44, .cls-45 {
        stroke: #1e72b8;
      }

      .cls-2 {
        fill: url(#Gradiente_sem_nome_1777-21);
      }

      .cls-3, .cls-47 {
        stroke: url(#Novo_padrão_4);
        stroke-linecap: round;
      }

      .cls-3, .cls-47, .cls-48, .cls-12, .cls-49, .cls-15, .cls-46, .cls-50, .cls-51, .cls-52, .cls-53, .cls-54, .cls-55, .cls-56 {
        fill: none;
      }

      .cls-4 {
        fill: url(#Gradiente_sem_nome_2-21);
      }

      .cls-4, .cls-7, .cls-9, .cls-13, .cls-14, .cls-16, .cls-17, .cls-20, .cls-21, .cls-23, .cls-24, .cls-29, .cls-30, .cls-31, .cls-36, .cls-37, .cls-38, .cls-39, .cls-40, .cls-41, .cls-42 {
        stroke: #2072b7;
      }

      .cls-57 {
        fill: #0669bb;
        font-family: CourierNewPS-BoldMT, 'Courier New';
        font-size: 5.38px;
        font-weight: 700;
      }

      .cls-47, .cls-48, .cls-49, .cls-46, .cls-50, .cls-51, .cls-52, .cls-53, .cls-54, .cls-56 {
        stroke-linejoin: round;
      }

      .cls-5 {
        fill: url(#Gradiente_sem_nome_1777-10);
      }

      .cls-6 {
        fill: url(#Gradiente_sem_nome_1777-4);
      }

      .cls-7 {
        fill: url(#Gradiente_sem_nome_2-5);
      }

      .cls-8 {
        fill: url(#Gradiente_sem_nome_1777-15);
      }

      .cls-48, .cls-49, .cls-50, .cls-52, .cls-53, .cls-54 {
        stroke-width: .5px;
      }

      .cls-48, .cls-53 {
        stroke: #1d1e1c;
      }

      .cls-9 {
        fill: url(#Gradiente_sem_nome_2-13);
      }

      .cls-10 {
        fill: url(#Gradiente_sem_nome_1777-11);
      }

      .cls-11 {
        fill: url(#Gradiente_sem_nome_1777-12);
      }

      .cls-12, .cls-46 {
        stroke: #fff;
      }

      .cls-13 {
        fill: url(#Gradiente_sem_nome_2-7);
      }

      .cls-58 {
        fill: #e10a17;
      }

      .cls-14 {
        fill: url(#Gradiente_sem_nome_2-2);
      }

      .cls-49 {
        stroke: #f7b232;
      }

      .cls-15 {
        stroke: #0669bb;
        stroke-width: 2px;
      }

      .cls-16 {
        fill: url(#Gradiente_sem_nome_2-16);
      }

      .cls-17 {
        fill: url(#Gradiente_sem_nome_2-17);
      }

      .cls-18 {
        fill: url(#Gradiente_sem_nome_1777-19);
      }

      .cls-19 {
        fill: url(#Gradiente_sem_nome_1777-14);
      }

      .cls-50 {
        stroke: #f8b233;
      }

      .cls-51 {
        stroke: #e10a17;
      }

      .cls-51, .cls-56 {
        stroke-width: .25px;
      }

      .cls-20 {
        fill: url(#Gradiente_sem_nome_2-20);
      }

      .cls-21 {
        fill: url(#Gradiente_sem_nome_2-18);
      }

      .cls-22 {
        fill: url(#Gradiente_sem_nome_1777-2);
      }

      .cls-23 {
        fill: url(#Gradiente_sem_nome_2-8);
      }

      .cls-24 {
        fill: url(#Gradiente_sem_nome_2-3);
      }

      .cls-25 {
        fill: url(#Gradiente_sem_nome_1777-18);
      }

      .cls-59 {
        fill: #e00c19;
      }

      .cls-26 {
        fill: url(#Gradiente_sem_nome_1777-7);
      }

      .cls-52 {
        stroke: #2fab67;
      }

      .cls-27 {
        fill: url(#Gradiente_sem_nome_1777-5);
      }

      .cls-28 {
        fill: url(#Gradiente_sem_nome_1777-20);
      }

      .cls-53 {
        opacity: .75;
      }

      .cls-29 {
        fill: url(#Gradiente_sem_nome_2-15);
      }

      .cls-54 {
        stroke: #30ab68;
      }

      .cls-30 {
        fill: url(#Gradiente_sem_nome_2-12);
      }

      .cls-31 {
        fill: url(#Gradiente_sem_nome_2-9);
      }

      .cls-32 {
        fill: url(#Gradiente_sem_nome_1777-17);
      }

      .cls-33 {
        fill: url(#Gradiente_sem_nome_1777-8);
      }

      .cls-56 {
        stroke: #e00c19;
      }

      .cls-34 {
        fill: url(#Gradiente_sem_nome_1777-6);
      }

      .cls-35 {
        fill: url(#Gradiente_sem_nome_1777-13);
      }

      .cls-36 {
        fill: url(#Gradiente_sem_nome_2-4);
      }

      .cls-37 {
        fill: url(#Gradiente_sem_nome_2-19);
      }

      .cls-60 {
        fill: url(#Novo_padrão_5);
      }

      .cls-38 {
        fill: url(#Gradiente_sem_nome_2-14);
      }

      .cls-39 {
        fill: url(#Gradiente_sem_nome_2-11);
      }

      .cls-40 {
        fill: url(#Gradiente_sem_nome_2-6);
      }

      .cls-41 {
        fill: url(#Gradiente_sem_nome_2-10);
      }

      .cls-42 {
        fill: url(#Gradiente_sem_nome_2);
      }

      .cls-43 {
        fill: url(#Gradiente_sem_nome_1777-16);
      }

      .cls-44 {
        fill: url(#Gradiente_sem_nome_1777);
      }

      .cls-45 {
        fill: url(#Gradiente_sem_nome_1777-3);
      }
    </style>
    <linearGradient id="Gradiente_sem_nome_2" data-name="Gradiente sem nome 2" x1="-7941.5" y1="-23744.29" x2="-7841.5" y2="-23744.29" gradientTransform="translate(8041.5 -23728.31) scale(1 -1)" gradientUnits="userSpaceOnUse">
      <stop offset="0" stop-color="#3461a9"/>
      <stop offset="1" stop-color="#2d4c9a"/>
    </linearGradient>
    <linearGradient id="Gradiente_sem_nome_2-2" data-name="Gradiente sem nome 2" y1="-23760.87" y2="-23760.87" xlink:href="#Gradiente_sem_nome_2"/>
    <linearGradient id="Gradiente_sem_nome_2-3" data-name="Gradiente sem nome 2" x1="-7941.5" y1="-23776.82" x2="-7841.5" y2="-23776.82" xlink:href="#Gradiente_sem_nome_2"/>
    <linearGradient id="Gradiente_sem_nome_2-4" data-name="Gradiente sem nome 2" x1="-7941.5" y1="-23793.41" x2="-7841.5" y2="-23793.41" xlink:href="#Gradiente_sem_nome_2"/>
    <linearGradient id="Gradiente_sem_nome_2-5" data-name="Gradiente sem nome 2" x1="-7941.5" y1="-23810.53" x2="-7841.5" y2="-23810.53" xlink:href="#Gradiente_sem_nome_2"/>
    <linearGradient id="Gradiente_sem_nome_2-6" data-name="Gradiente sem nome 2" x1="-7941.59" y1="-23827" x2="-7841.59" y2="-23827" xlink:href="#Gradiente_sem_nome_2"/>
    <linearGradient id="Gradiente_sem_nome_2-7" data-name="Gradiente sem nome 2" x1="-8041.5" x2="-7941.5" xlink:href="#Gradiente_sem_nome_2"/>
    <linearGradient id="Gradiente_sem_nome_2-8" data-name="Gradiente sem nome 2" x1="-8041.5" y1="-23760.87" x2="-7941.5" y2="-23760.87" xlink:href="#Gradiente_sem_nome_2"/>
    <linearGradient id="Gradiente_sem_nome_2-9" data-name="Gradiente sem nome 2" x1="-8041.5" y1="-23776.82" x2="-7941.5" y2="-23776.82" xlink:href="#Gradiente_sem_nome_2"/>
    <linearGradient id="Gradiente_sem_nome_2-10" data-name="Gradiente sem nome 2" x1="-8041.5" y1="-23793.41" x2="-7941.5" y2="-23793.41" xlink:href="#Gradiente_sem_nome_2"/>
    <linearGradient id="Gradiente_sem_nome_2-11" data-name="Gradiente sem nome 2" x1="-8041.5" y1="-23810.53" x2="-7941.5" y2="-23810.53" xlink:href="#Gradiente_sem_nome_2"/>
    <linearGradient id="Gradiente_sem_nome_2-12" data-name="Gradiente sem nome 2" x1="-8041.59" y1="-23827" x2="-7941.59" y2="-23827" xlink:href="#Gradiente_sem_nome_2"/>
    <linearGradient id="Gradiente_sem_nome_2-13" data-name="Gradiente sem nome 2" x1="-8141.5" x2="-8041.5" xlink:href="#Gradiente_sem_nome_2"/>
    <linearGradient id="Gradiente_sem_nome_2-14" data-name="Gradiente sem nome 2" x1="-8141.5" y1="-23760.87" x2="-8041.5" y2="-23760.87" xlink:href="#Gradiente_sem_nome_2"/>
    <linearGradient id="Gradiente_sem_nome_2-15" data-name="Gradiente sem nome 2" x1="-8141.5" y1="-23776.82" x2="-8041.5" y2="-23776.82" xlink:href="#Gradiente_sem_nome_2"/>
    <linearGradient id="Gradiente_sem_nome_2-16" data-name="Gradiente sem nome 2" x1="-8141.5" y1="-23793.41" x2="-8041.5" y2="-23793.41" xlink:href="#Gradiente_sem_nome_2"/>
    <linearGradient id="Gradiente_sem_nome_2-17" data-name="Gradiente sem nome 2" x1="-8141.5" y1="-23810.53" x2="-8041.5" y2="-23810.53" xlink:href="#Gradiente_sem_nome_2"/>
    <linearGradient id="Gradiente_sem_nome_2-18" data-name="Gradiente sem nome 2" x1="-8141.59" y1="-23827" x2="-8041.59" y2="-23827" xlink:href="#Gradiente_sem_nome_2"/>
    <linearGradient id="Gradiente_sem_nome_2-19" data-name="Gradiente sem nome 2" x1="-7941.59" y1="-23727" x2="-7841.59" y2="-23727" xlink:href="#Gradiente_sem_nome_2"/>
    <linearGradient id="Gradiente_sem_nome_2-20" data-name="Gradiente sem nome 2" x1="-8041.59" y1="-23727" x2="-7941.59" y2="-23727" xlink:href="#Gradiente_sem_nome_2"/>
    <linearGradient id="Gradiente_sem_nome_2-21" data-name="Gradiente sem nome 2" x1="-8141.59" y1="-23727" x2="-8041.59" y2="-23727" xlink:href="#Gradiente_sem_nome_2"/>
    <pattern id="Novo_padrão_5" data-name="Novo padrão 5" x="0" y="0" width="100" height="100" patternTransform="translate(-7562.96 -7570.69) scale(.07)" patternUnits="userSpaceOnUse" viewBox="0 0 100 100">
      <g>
        <rect class="cls-55" width="100" height="100"/>
        <g>
          <rect class="cls-42" x="100" y="8.04" width="100" height="15.87"/>
          <polygon class="cls-46" points="100.81 13.92 94.56 6.6 107.06 6.6 100.81 13.92"/>
          <rect class="cls-14" x="100" y="24.62" width="100" height="15.87"/>
          <polygon class="cls-46" points="100.81 30.5 94.56 23.18 107.06 23.18 100.81 30.5"/>
          <rect class="cls-24" x="100" y="40.57" width="100" height="15.87"/>
          <polygon class="cls-46" points="100.81 46.46 94.56 39.14 107.06 39.14 100.81 46.46"/>
          <rect class="cls-36" x="100" y="57.16" width="100" height="15.87"/>
          <polygon class="cls-46" points="100.81 63.04 94.56 55.72 107.06 55.72 100.81 63.04"/>
          <rect class="cls-7" x="100" y="74.28" width="100" height="15.87"/>
          <polygon class="cls-46" points="100.81 80.16 94.56 72.84 107.06 72.84 100.81 80.16"/>
          <rect class="cls-40" x="99.91" y="90.75" width="100" height="15.87"/>
          <polygon class="cls-46" points="100.72 96.63 94.47 89.31 106.97 89.31 100.72 96.63"/>
        </g>
        <g>
          <rect class="cls-13" x="0" y="8.04" width="100" height="15.87"/>
          <polygon class="cls-12" points="36.82 16.19 43.07 23.51 30.58 23.51 36.82 16.19"/>
          <polygon class="cls-12" points="51.39 16.19 57.64 23.51 45.14 23.51 51.39 16.19"/>
          <polygon class="cls-12" points="65.95 16.19 72.2 23.51 59.71 23.51 65.95 16.19"/>
          <polygon class="cls-12" points="81.59 16.19 87.84 23.51 75.35 23.51 81.59 16.19"/>
          <polygon class="cls-12" points="96.73 16.13 102.98 23.45 90.48 23.45 96.73 16.13"/>
          <polygon class="cls-54" points="65.95 8.33 59.71 15.65 72.2 15.65 65.95 8.33"/>
          <polygon class="cls-54" points="81.94 8.39 75.7 15.71 88.19 15.71 81.94 8.39"/>
          <polygon class="cls-54" points="51.39 8.33 45.14 15.65 57.64 15.65 51.39 8.33"/>
          <polygon class="cls-54" points="36.82 8.33 30.58 15.65 43.07 15.65 36.82 8.33"/>
          <polygon class="cls-48" points="65.91 18.45 62.78 22.12 69.05 22.12 65.91 18.45"/>
          <polygon class="cls-54" points="81.59 18.6 78.46 22.27 84.73 22.27 81.59 18.6"/>
          <polygon class="cls-56" points="51.39 18.54 48.26 22.22 54.52 22.22 51.39 18.54"/>
          <polygon class="cls-56" points="96.73 18.45 93.6 22.12 99.86 22.12 96.73 18.45"/>
          <polygon class="cls-54" points="36.7 18.54 33.57 22.22 39.84 22.22 36.7 18.54"/>
          <polygon class="cls-12" points="22.29 16.19 28.54 23.51 16.04 23.51 22.29 16.19"/>
          <polygon class="cls-48" points="22.17 18.54 19.03 22.22 25.3 22.22 22.17 18.54"/>
          <polygon class="cls-12" points="8 16.19 14.25 23.51 1.75 23.51 8 16.19"/>
          <polygon class="cls-56" points="7.88 18.54 4.74 22.22 11.01 22.22 7.88 18.54"/>
          <polygon class="cls-53" points="65.91 10.19 62.15 14.6 69.68 14.6 65.91 10.19"/>
          <polygon class="cls-53" points="36.82 10.19 33.06 14.6 40.59 14.6 36.82 10.19"/>
          <polygon class="cls-53" points="51.39 9.84 47.62 14.26 55.16 14.26 51.39 9.84"/>
          <polygon class="cls-53" points="82.12 10.19 78.35 14.6 85.89 14.6 82.12 10.19"/>
          <polygon class="cls-46" points="58.67 14.26 52.43 6.94 64.92 6.94 58.67 14.26"/>
          <polygon class="cls-49" points="58.67 21.69 52.43 14.37 64.92 14.37 58.67 21.69"/>
          <polygon class="cls-46" points="74.09 14.26 67.84 6.94 80.34 6.94 74.09 14.26"/>
          <polygon class="cls-49" points="73.55 21.69 67.3 14.37 79.79 14.37 73.55 21.69"/>
          <polygon class="cls-46" points="89.63 14.26 83.38 6.94 95.88 6.94 89.63 14.26"/>
          <polygon class="cls-46" points="44.11 13.92 37.86 6.6 50.35 6.6 44.11 13.92"/>
          <polygon class="cls-46" points="29.54 13.64 23.3 6.32 35.79 6.32 29.54 13.64"/>
          <polygon class="cls-46" points="15.1 13.92 8.85 6.6 21.35 6.6 15.1 13.92"/>
          <polygon class="cls-46" points=".81 13.92 -5.44 6.6 7.06 6.6 .81 13.92"/>
          <polygon class="cls-49" points="44.11 21.69 37.86 14.37 50.35 14.37 44.11 21.69"/>
          <polygon class="cls-54" points="22.29 8.39 16.04 15.71 28.54 15.71 22.29 8.39"/>
          <polygon class="cls-53" points="22.29 10.25 18.52 14.67 26.06 14.67 22.29 10.25"/>
          <path class="cls-59" d="m22.17,13.71c1.09,0,1.09-1.64,0-1.64s-1.09,1.64,0,1.64h0Z"/>
          <polygon class="cls-54" points="8 8.39 1.75 15.71 14.25 15.71 8 8.39"/>
          <polygon class="cls-53" points="8 10.25 4.23 14.67 11.77 14.67 8 10.25"/>
          <path class="cls-59" d="m7.88,13.71c1.09,0,1.09-1.64,0-1.64s-1.09,1.64,0,1.64h0Z"/>
          <path class="cls-59" d="m36.7,13.64c1.09,0,1.09-1.64,0-1.64s-1.09,1.64,0,1.64h0Z"/>
          <path class="cls-59" d="m65.91,13.64c1.09,0,1.09-1.64,0-1.64s-1.09,1.64,0,1.64h0Z"/>
          <path class="cls-59" d="m82.12,13.64c1.09,0,1.09-1.64,0-1.64s-1.09,1.64,0,1.64h0Z"/>
          <polygon class="cls-54" points="97.37 8.39 91.13 15.71 103.62 15.71 97.37 8.39"/>
          <polygon class="cls-53" points="97.55 10.19 93.78 14.6 101.32 14.6 97.55 10.19"/>
          <path class="cls-59" d="m97.55,13.64c1.09,0,1.09-1.64,0-1.64s-1.09,1.64,0,1.64h0Z"/>
          <path class="cls-59" d="m51.39,13.64c1.09,0,1.09-1.64,0-1.64s-1.09,1.64,0,1.64h0Z"/>
          <polygon class="cls-49" points="29.54 21.69 23.3 14.37 35.79 14.37 29.54 21.69"/>
          <polygon class="cls-49" points="15.1 21.69 8.85 14.37 21.35 14.37 15.1 21.69"/>
          <polygon class="cls-49" points="89.18 22.2 82.94 14.88 95.43 14.88 89.18 22.2"/>
          <rect class="cls-23" x="0" y="24.62" width="100" height="15.87"/>
          <polygon class="cls-12" points="36.82 32.77 43.07 40.1 30.58 40.1 36.82 32.77"/>
          <polygon class="cls-12" points="51.39 32.77 57.64 40.1 45.14 40.1 51.39 32.77"/>
          <polygon class="cls-12" points="65.95 32.77 72.2 40.1 59.71 40.1 65.95 32.77"/>
          <polygon class="cls-12" points="81.59 32.77 87.84 40.1 75.35 40.1 81.59 32.77"/>
          <polygon class="cls-12" points="96.73 32.71 102.98 40.03 90.48 40.03 96.73 32.71"/>
          <polygon class="cls-54" points="65.95 24.91 59.71 32.23 72.2 32.23 65.95 24.91"/>
          <polygon class="cls-54" points="81.94 24.97 75.7 32.29 88.19 32.29 81.94 24.97"/>
          <polygon class="cls-54" points="51.39 24.91 45.14 32.23 57.64 32.23 51.39 24.91"/>
          <polygon class="cls-54" points="36.82 24.91 30.58 32.23 43.07 32.23 36.82 24.91"/>
          <polygon class="cls-48" points="65.91 35.03 62.78 38.7 69.05 38.7 65.91 35.03"/>
          <polygon class="cls-54" points="81.59 35.18 78.46 38.86 84.73 38.86 81.59 35.18"/>
          <polygon class="cls-56" points="51.39 35.12 48.26 38.8 54.52 38.8 51.39 35.12"/>
          <polygon class="cls-56" points="96.73 35.03 93.6 38.7 99.86 38.7 96.73 35.03"/>
          <polygon class="cls-54" points="36.7 35.12 33.57 38.8 39.84 38.8 36.7 35.12"/>
          <polygon class="cls-12" points="22.29 32.77 28.54 40.1 16.04 40.1 22.29 32.77"/>
          <polygon class="cls-48" points="22.17 35.12 19.03 38.8 25.3 38.8 22.17 35.12"/>
          <polygon class="cls-12" points="8 32.77 14.25 40.1 1.75 40.1 8 32.77"/>
          <polygon class="cls-56" points="7.88 35.12 4.74 38.8 11.01 38.8 7.88 35.12"/>
          <polygon class="cls-53" points="65.91 26.77 62.15 31.19 69.68 31.19 65.91 26.77"/>
          <polygon class="cls-53" points="36.82 26.77 33.06 31.19 40.59 31.19 36.82 26.77"/>
          <polygon class="cls-53" points="51.39 26.43 47.62 30.84 55.16 30.84 51.39 26.43"/>
          <polygon class="cls-53" points="82.12 26.77 78.35 31.19 85.89 31.19 82.12 26.77"/>
          <polygon class="cls-46" points="58.67 30.84 52.43 23.52 64.92 23.52 58.67 30.84"/>
          <polygon class="cls-49" points="58.67 38.27 52.43 30.95 64.92 30.95 58.67 38.27"/>
          <polygon class="cls-46" points="74.09 30.84 67.84 23.52 80.34 23.52 74.09 30.84"/>
          <polygon class="cls-49" points="73.55 38.27 67.3 30.95 79.79 30.95 73.55 38.27"/>
          <polygon class="cls-46" points="89.63 30.84 83.38 23.52 95.88 23.52 89.63 30.84"/>
          <polygon class="cls-46" points="44.11 30.5 37.86 23.18 50.35 23.18 44.11 30.5"/>
          <polygon class="cls-46" points="29.54 30.22 23.3 22.9 35.79 22.9 29.54 30.22"/>
          <polygon class="cls-46" points="15.1 30.5 8.85 23.18 21.35 23.18 15.1 30.5"/>
          <polygon class="cls-46" points=".81 30.5 -5.44 23.18 7.06 23.18 .81 30.5"/>
          <polygon class="cls-49" points="44.11 38.27 37.86 30.95 50.35 30.95 44.11 38.27"/>
          <polygon class="cls-54" points="22.29 24.97 16.04 32.29 28.54 32.29 22.29 24.97"/>
          <polygon class="cls-53" points="22.29 26.83 18.52 31.25 26.06 31.25 22.29 26.83"/>
          <path class="cls-59" d="m22.17,30.29c1.09,0,1.09-1.64,0-1.64s-1.09,1.64,0,1.64h0Z"/>
          <polygon class="cls-54" points="8 24.97 1.75 32.29 14.25 32.29 8 24.97"/>
          <polygon class="cls-53" points="8 26.83 4.23 31.25 11.77 31.25 8 26.83"/>
          <path class="cls-59" d="m7.88,30.29c1.09,0,1.09-1.64,0-1.64s-1.09,1.64,0,1.64h0Z"/>
          <path class="cls-59" d="m36.7,30.22c1.09,0,1.09-1.64,0-1.64s-1.09,1.64,0,1.64h0Z"/>
          <path class="cls-59" d="m65.91,30.22c1.09,0,1.09-1.64,0-1.64s-1.09,1.64,0,1.64h0Z"/>
          <path class="cls-59" d="m82.12,30.22c1.09,0,1.09-1.64,0-1.64s-1.09,1.64,0,1.64h0Z"/>
          <polygon class="cls-54" points="97.37 24.97 91.13 32.29 103.62 32.29 97.37 24.97"/>
          <polygon class="cls-53" points="97.55 26.77 93.78 31.19 101.32 31.19 97.55 26.77"/>
          <path class="cls-59" d="m97.55,30.22c1.09,0,1.09-1.64,0-1.64s-1.09,1.64,0,1.64h0Z"/>
          <path class="cls-59" d="m51.39,30.22c1.09,0,1.09-1.64,0-1.64s-1.09,1.64,0,1.64h0Z"/>
          <polygon class="cls-49" points="29.54 38.27 23.3 30.95 35.79 30.95 29.54 38.27"/>
          <polygon class="cls-49" points="15.1 38.27 8.85 30.95 21.35 30.95 15.1 38.27"/>
          <polygon class="cls-49" points="89.18 38.78 82.94 31.46 95.43 31.46 89.18 38.78"/>
          <rect class="cls-31" y="40.57" width="100" height="15.87"/>
          <polygon class="cls-12" points="36.82 48.73 43.07 56.05 30.58 56.05 36.82 48.73"/>
          <polygon class="cls-12" points="51.39 48.73 57.64 56.05 45.14 56.05 51.39 48.73"/>
          <polygon class="cls-12" points="65.95 48.73 72.2 56.05 59.71 56.05 65.95 48.73"/>
          <polygon class="cls-12" points="81.59 48.73 87.84 56.05 75.35 56.05 81.59 48.73"/>
          <polygon class="cls-12" points="96.73 48.66 102.98 55.98 90.48 55.98 96.73 48.66"/>
          <polygon class="cls-54" points="65.95 40.86 59.71 48.18 72.2 48.18 65.95 40.86"/>
          <polygon class="cls-54" points="81.94 40.93 75.7 48.25 88.19 48.25 81.94 40.93"/>
          <polygon class="cls-54" points="51.39 40.86 45.14 48.18 57.64 48.18 51.39 40.86"/>
          <polygon class="cls-54" points="36.82 40.86 30.58 48.18 43.07 48.18 36.82 40.86"/>
          <polygon class="cls-48" points="65.91 50.98 62.78 54.65 69.05 54.65 65.91 50.98"/>
          <polygon class="cls-54" points="81.59 51.13 78.46 54.81 84.73 54.81 81.59 51.13"/>
          <polygon class="cls-56" points="51.39 51.08 48.26 54.75 54.52 54.75 51.39 51.08"/>
          <polygon class="cls-56" points="96.73 50.98 93.6 54.65 99.86 54.65 96.73 50.98"/>
          <polygon class="cls-54" points="36.7 51.08 33.57 54.75 39.84 54.75 36.7 51.08"/>
          <polygon class="cls-12" points="22.29 48.73 28.54 56.05 16.04 56.05 22.29 48.73"/>
          <polygon class="cls-48" points="22.17 51.08 19.03 54.75 25.3 54.75 22.17 51.08"/>
          <polygon class="cls-12" points="8 48.73 14.25 56.05 1.75 56.05 8 48.73"/>
          <polygon class="cls-56" points="7.88 51.08 4.74 54.75 11.01 54.75 7.88 51.08"/>
          <polygon class="cls-53" points="65.91 42.72 62.15 47.14 69.68 47.14 65.91 42.72"/>
          <polygon class="cls-53" points="36.82 42.72 33.06 47.14 40.59 47.14 36.82 42.72"/>
          <polygon class="cls-53" points="51.39 42.38 47.62 46.79 55.16 46.79 51.39 42.38"/>
          <polygon class="cls-53" points="82.12 42.72 78.35 47.14 85.89 47.14 82.12 42.72"/>
          <polygon class="cls-46" points="58.67 46.79 52.43 39.47 64.92 39.47 58.67 46.79"/>
          <polygon class="cls-49" points="58.67 54.23 52.43 46.91 64.92 46.91 58.67 54.23"/>
          <polygon class="cls-46" points="74.09 46.79 67.84 39.47 80.34 39.47 74.09 46.79"/>
          <polygon class="cls-49" points="73.55 54.23 67.3 46.91 79.79 46.91 73.55 54.23"/>
          <polygon class="cls-46" points="89.63 46.79 83.38 39.47 95.88 39.47 89.63 46.79"/>
          <polygon class="cls-46" points="44.11 46.46 37.86 39.14 50.35 39.14 44.11 46.46"/>
          <polygon class="cls-46" points="29.54 46.18 23.3 38.86 35.79 38.86 29.54 46.18"/>
          <polygon class="cls-46" points="15.1 46.46 8.85 39.14 21.35 39.14 15.1 46.46"/>
          <polygon class="cls-46" points=".81 46.46 -5.44 39.14 7.06 39.14 .81 46.46"/>
          <polygon class="cls-49" points="44.11 54.23 37.86 46.91 50.35 46.91 44.11 54.23"/>
          <polygon class="cls-54" points="22.29 40.93 16.04 48.25 28.54 48.25 22.29 40.93"/>
          <polygon class="cls-53" points="22.29 42.78 18.52 47.2 26.06 47.2 22.29 42.78"/>
          <path class="cls-59" d="m22.17,46.24c1.09,0,1.09-1.64,0-1.64s-1.09,1.64,0,1.64h0Z"/>
          <polygon class="cls-54" points="8 40.93 1.75 48.25 14.25 48.25 8 40.93"/>
          <polygon class="cls-53" points="8 42.78 4.23 47.2 11.77 47.2 8 42.78"/>
          <path class="cls-59" d="m7.88,46.24c1.09,0,1.09-1.64,0-1.64s-1.09,1.64,0,1.64h0Z"/>
          <path class="cls-59" d="m36.7,46.18c1.09,0,1.09-1.64,0-1.64s-1.09,1.64,0,1.64h0Z"/>
          <path class="cls-59" d="m65.91,46.18c1.09,0,1.09-1.64,0-1.64s-1.09,1.64,0,1.64h0Z"/>
          <path class="cls-59" d="m82.12,46.18c1.09,0,1.09-1.64,0-1.64s-1.09,1.64,0,1.64h0Z"/>
          <polygon class="cls-54" points="97.37 40.93 91.13 48.25 103.62 48.25 97.37 40.93"/>
          <polygon class="cls-53" points="97.55 42.72 93.78 47.14 101.32 47.14 97.55 42.72"/>
          <path class="cls-59" d="m97.55,46.18c1.09,0,1.09-1.64,0-1.64s-1.09,1.64,0,1.64h0Z"/>
          <path class="cls-59" d="m51.39,46.18c1.09,0,1.09-1.64,0-1.64s-1.09,1.64,0,1.64h0Z"/>
          <polygon class="cls-49" points="29.54 54.23 23.3 46.91 35.79 46.91 29.54 54.23"/>
          <polygon class="cls-49" points="15.1 54.23 8.85 46.91 21.35 46.91 15.1 54.23"/>
          <polygon class="cls-49" points="89.18 54.74 82.94 47.42 95.43 47.42 89.18 54.74"/>
          <rect class="cls-41" y="57.16" width="100" height="15.87"/>
          <polygon class="cls-12" points="36.82 65.31 43.07 72.63 30.58 72.63 36.82 65.31"/>
          <polygon class="cls-12" points="51.39 65.31 57.64 72.63 45.14 72.63 51.39 65.31"/>
          <polygon class="cls-12" points="65.95 65.31 72.2 72.63 59.71 72.63 65.95 65.31"/>
          <polygon class="cls-12" points="81.59 65.31 87.84 72.63 75.35 72.63 81.59 65.31"/>
          <polygon class="cls-12" points="96.73 65.24 102.98 72.56 90.48 72.56 96.73 65.24"/>
          <polygon class="cls-54" points="65.95 57.44 59.71 64.76 72.2 64.76 65.95 57.44"/>
          <polygon class="cls-54" points="81.94 57.51 75.7 64.83 88.19 64.83 81.94 57.51"/>
          <polygon class="cls-54" points="51.39 57.44 45.14 64.76 57.64 64.76 51.39 57.44"/>
          <polygon class="cls-54" points="36.82 57.44 30.58 64.76 43.07 64.76 36.82 57.44"/>
          <polygon class="cls-48" points="65.91 67.56 62.78 71.23 69.05 71.23 65.91 67.56"/>
          <polygon class="cls-54" points="81.59 67.71 78.46 71.39 84.73 71.39 81.59 67.71"/>
          <polygon class="cls-56" points="51.39 67.66 48.26 71.33 54.52 71.33 51.39 67.66"/>
          <polygon class="cls-56" points="96.73 67.56 93.6 71.23 99.86 71.23 96.73 67.56"/>
          <polygon class="cls-54" points="36.7 67.66 33.57 71.33 39.84 71.33 36.7 67.66"/>
          <polygon class="cls-12" points="22.29 65.31 28.54 72.63 16.04 72.63 22.29 65.31"/>
          <polygon class="cls-48" points="22.17 67.66 19.03 71.33 25.3 71.33 22.17 67.66"/>
          <polygon class="cls-12" points="8 65.31 14.25 72.63 1.75 72.63 8 65.31"/>
          <polygon class="cls-56" points="7.88 67.66 4.74 71.33 11.01 71.33 7.88 67.66"/>
          <polygon class="cls-53" points="65.91 59.3 62.15 63.72 69.68 63.72 65.91 59.3"/>
          <polygon class="cls-53" points="36.82 59.3 33.06 63.72 40.59 63.72 36.82 59.3"/>
          <polygon class="cls-53" points="51.39 58.96 47.62 63.38 55.16 63.38 51.39 58.96"/>
          <polygon class="cls-53" points="82.12 59.3 78.35 63.72 85.89 63.72 82.12 59.3"/>
          <polygon class="cls-46" points="58.67 63.38 52.43 56.05 64.92 56.05 58.67 63.38"/>
          <polygon class="cls-49" points="58.67 70.81 52.43 63.49 64.92 63.49 58.67 70.81"/>
          <polygon class="cls-46" points="74.09 63.38 67.84 56.05 80.34 56.05 74.09 63.38"/>
          <polygon class="cls-49" points="73.55 70.81 67.3 63.49 79.79 63.49 73.55 70.81"/>
          <polygon class="cls-46" points="89.63 63.38 83.38 56.05 95.88 56.05 89.63 63.38"/>
          <polygon class="cls-46" points="44.11 63.04 37.86 55.72 50.35 55.72 44.11 63.04"/>
          <polygon class="cls-46" points="29.54 62.76 23.3 55.44 35.79 55.44 29.54 62.76"/>
          <polygon class="cls-46" points="15.1 63.04 8.85 55.72 21.35 55.72 15.1 63.04"/>
          <polygon class="cls-46" points=".81 63.04 -5.44 55.72 7.06 55.72 .81 63.04"/>
          <polygon class="cls-49" points="44.11 70.81 37.86 63.49 50.35 63.49 44.11 70.81"/>
          <polygon class="cls-54" points="22.29 57.51 16.04 64.83 28.54 64.83 22.29 57.51"/>
          <polygon class="cls-53" points="22.29 59.37 18.52 63.78 26.06 63.78 22.29 59.37"/>
          <path class="cls-59" d="m22.17,62.82c1.09,0,1.09-1.64,0-1.64s-1.09,1.64,0,1.64h0Z"/>
          <polygon class="cls-54" points="8 57.51 1.75 64.83 14.25 64.83 8 57.51"/>
          <polygon class="cls-53" points="8 59.37 4.23 63.78 11.77 63.78 8 59.37"/>
          <path class="cls-59" d="m7.88,62.82c1.09,0,1.09-1.64,0-1.64s-1.09,1.64,0,1.64h0Z"/>
          <path class="cls-59" d="m36.7,62.76c1.09,0,1.09-1.64,0-1.64s-1.09,1.64,0,1.64h0Z"/>
          <path class="cls-59" d="m65.91,62.76c1.09,0,1.09-1.64,0-1.64s-1.09,1.64,0,1.64h0Z"/>
          <path class="cls-59" d="m82.12,62.76c1.09,0,1.09-1.64,0-1.64s-1.09,1.64,0,1.64h0Z"/>
          <polygon class="cls-54" points="97.37 57.51 91.13 64.83 103.62 64.83 97.37 57.51"/>
          <polygon class="cls-53" points="97.55 59.3 93.78 63.72 101.32 63.72 97.55 59.3"/>
          <path class="cls-59" d="m97.55,62.76c1.09,0,1.09-1.64,0-1.64s-1.09,1.64,0,1.64h0Z"/>
          <path class="cls-59" d="m51.39,62.76c1.09,0,1.09-1.64,0-1.64s-1.09,1.64,0,1.64h0Z"/>
          <polygon class="cls-49" points="29.54 70.81 23.3 63.49 35.79 63.49 29.54 70.81"/>
          <polygon class="cls-49" points="15.1 70.81 8.85 63.49 21.35 63.49 15.1 70.81"/>
          <polygon class="cls-49" points="89.18 71.32 82.94 64 95.43 64 89.18 71.32"/>
          <rect class="cls-39" x="0" y="74.28" width="100" height="15.87"/>
          <polygon class="cls-12" points="36.82 82.43 43.07 89.75 30.58 89.75 36.82 82.43"/>
          <polygon class="cls-12" points="51.39 82.43 57.64 89.75 45.14 89.75 51.39 82.43"/>
          <polygon class="cls-12" points="65.95 82.43 72.2 89.75 59.71 89.75 65.95 82.43"/>
          <polygon class="cls-12" points="81.59 82.43 87.84 89.75 75.35 89.75 81.59 82.43"/>
          <polygon class="cls-12" points="96.73 82.37 102.98 89.69 90.48 89.69 96.73 82.37"/>
          <polygon class="cls-54" points="65.95 74.57 59.71 81.89 72.2 81.89 65.95 74.57"/>
          <polygon class="cls-54" points="81.94 74.63 75.7 81.95 88.19 81.95 81.94 74.63"/>
          <polygon class="cls-54" points="51.39 74.57 45.14 81.89 57.64 81.89 51.39 74.57"/>
          <polygon class="cls-54" points="36.82 74.57 30.58 81.89 43.07 81.89 36.82 74.57"/>
          <polygon class="cls-48" points="65.91 84.69 62.78 88.36 69.05 88.36 65.91 84.69"/>
          <polygon class="cls-54" points="81.59 84.84 78.46 88.51 84.73 88.51 81.59 84.84"/>
          <polygon class="cls-56" points="51.39 84.78 48.26 88.46 54.52 88.46 51.39 84.78"/>
          <polygon class="cls-56" points="96.73 84.69 93.6 88.36 99.86 88.36 96.73 84.69"/>
          <polygon class="cls-54" points="36.7 84.78 33.57 88.46 39.84 88.46 36.7 84.78"/>
          <polygon class="cls-12" points="22.29 82.43 28.54 89.75 16.04 89.75 22.29 82.43"/>
          <polygon class="cls-48" points="22.17 84.78 19.03 88.46 25.3 88.46 22.17 84.78"/>
          <polygon class="cls-12" points="8 82.43 14.25 89.75 1.75 89.75 8 82.43"/>
          <polygon class="cls-56" points="7.88 84.78 4.74 88.46 11.01 88.46 7.88 84.78"/>
          <polygon class="cls-53" points="65.91 76.43 62.15 80.84 69.68 80.84 65.91 76.43"/>
          <polygon class="cls-53" points="36.82 76.43 33.06 80.84 40.59 80.84 36.82 76.43"/>
          <polygon class="cls-53" points="51.39 76.09 47.62 80.5 55.16 80.5 51.39 76.09"/>
          <polygon class="cls-53" points="82.12 76.43 78.35 80.84 85.89 80.84 82.12 76.43"/>
          <polygon class="cls-46" points="58.67 80.5 52.43 73.18 64.92 73.18 58.67 80.5"/>
          <polygon class="cls-49" points="58.67 87.93 52.43 80.61 64.92 80.61 58.67 87.93"/>
          <polygon class="cls-46" points="74.09 80.5 67.84 73.18 80.34 73.18 74.09 80.5"/>
          <polygon class="cls-49" points="73.55 87.93 67.3 80.61 79.79 80.61 73.55 87.93"/>
          <polygon class="cls-46" points="89.63 80.5 83.38 73.18 95.88 73.18 89.63 80.5"/>
          <polygon class="cls-46" points="44.11 80.16 37.86 72.84 50.35 72.84 44.11 80.16"/>
          <polygon class="cls-46" points="29.54 79.88 23.3 72.56 35.79 72.56 29.54 79.88"/>
          <polygon class="cls-46" points="15.1 80.16 8.85 72.84 21.35 72.84 15.1 80.16"/>
          <polygon class="cls-46" points=".81 80.16 -5.44 72.84 7.06 72.84 .81 80.16"/>
          <polygon class="cls-49" points="44.11 87.93 37.86 80.61 50.35 80.61 44.11 87.93"/>
          <polygon class="cls-54" points="22.29 74.63 16.04 81.95 28.54 81.95 22.29 74.63"/>
          <polygon class="cls-53" points="22.29 76.49 18.52 80.91 26.06 80.91 22.29 76.49"/>
          <path class="cls-59" d="m22.17,79.95c1.09,0,1.09-1.64,0-1.64s-1.09,1.64,0,1.64h0Z"/>
          <polygon class="cls-54" points="8 74.63 1.75 81.95 14.25 81.95 8 74.63"/>
          <polygon class="cls-53" points="8 76.49 4.23 80.91 11.77 80.91 8 76.49"/>
          <path class="cls-59" d="m7.88,79.95c1.09,0,1.09-1.64,0-1.64s-1.09,1.64,0,1.64h0Z"/>
          <path class="cls-59" d="m36.7,79.88c1.09,0,1.09-1.64,0-1.64s-1.09,1.64,0,1.64h0Z"/>
          <path class="cls-59" d="m65.91,79.88c1.09,0,1.09-1.64,0-1.64s-1.09,1.64,0,1.64h0Z"/>
          <path class="cls-59" d="m82.12,79.88c1.09,0,1.09-1.64,0-1.64s-1.09,1.64,0,1.64h0Z"/>
          <polygon class="cls-54" points="97.37 74.63 91.13 81.95 103.62 81.95 97.37 74.63"/>
          <polygon class="cls-53" points="97.55 76.43 93.78 80.84 101.32 80.84 97.55 76.43"/>
          <path class="cls-59" d="m97.55,79.88c1.09,0,1.09-1.64,0-1.64s-1.09,1.64,0,1.64h0Z"/>
          <path class="cls-59" d="m51.39,79.88c1.09,0,1.09-1.64,0-1.64s-1.09,1.64,0,1.64h0Z"/>
          <polygon class="cls-49" points="29.54 87.93 23.3 80.61 35.79 80.61 29.54 87.93"/>
          <polygon class="cls-49" points="15.1 87.93 8.85 80.61 21.35 80.61 15.1 87.93"/>
          <polygon class="cls-49" points="89.18 88.44 82.94 81.12 95.43 81.12 89.18 88.44"/>
          <rect class="cls-30" x="-.09" y="90.75" width="100" height="15.87"/>
          <polygon class="cls-12" points="36.73 98.9 42.98 106.22 30.49 106.22 36.73 98.9"/>
          <polygon class="cls-12" points="51.3 98.9 57.55 106.22 45.05 106.22 51.3 98.9"/>
          <polygon class="cls-12" points="65.86 98.9 72.11 106.22 59.62 106.22 65.86 98.9"/>
          <polygon class="cls-12" points="81.5 98.9 87.75 106.22 75.26 106.22 81.5 98.9"/>
          <polygon class="cls-12" points="96.64 98.84 102.89 106.16 90.39 106.16 96.64 98.84"/>
          <polygon class="cls-54" points="65.86 91.04 59.62 98.36 72.11 98.36 65.86 91.04"/>
          <polygon class="cls-54" points="81.85 91.1 75.61 98.42 88.1 98.42 81.85 91.1"/>
          <polygon class="cls-54" points="51.3 91.04 45.05 98.36 57.55 98.36 51.3 91.04"/>
          <polygon class="cls-54" points="36.73 91.04 30.49 98.36 42.98 98.36 36.73 91.04"/>
          <polygon class="cls-12" points="22.2 98.9 28.45 106.22 15.95 106.22 22.2 98.9"/>
          <polygon class="cls-12" points="7.91 98.9 14.16 106.22 1.66 106.22 7.91 98.9"/>
          <polygon class="cls-53" points="65.82 92.89 62.06 97.31 69.59 97.31 65.82 92.89"/>
          <polygon class="cls-53" points="36.73 92.89 32.97 97.31 40.5 97.31 36.73 92.89"/>
          <polygon class="cls-53" points="51.3 92.55 47.53 96.97 55.07 96.97 51.3 92.55"/>
          <polygon class="cls-53" points="82.03 92.89 78.26 97.31 85.8 97.31 82.03 92.89"/>
          <polygon class="cls-46" points="58.58 96.97 52.34 89.65 64.83 89.65 58.58 96.97"/>
          <polygon class="cls-49" points="58.58 104.4 52.34 97.08 64.83 97.08 58.58 104.4"/>
          <polygon class="cls-46" points="74 96.97 67.75 89.65 80.25 89.65 74 96.97"/>
          <polygon class="cls-49" points="73.46 104.4 67.21 97.08 79.7 97.08 73.46 104.4"/>
          <polygon class="cls-46" points="89.54 96.97 83.29 89.65 95.79 89.65 89.54 96.97"/>
          <polygon class="cls-46" points="44.02 96.63 37.77 89.31 50.26 89.31 44.02 96.63"/>
          <polygon class="cls-46" points="29.45 96.35 23.21 89.03 35.7 89.03 29.45 96.35"/>
          <polygon class="cls-46" points="15.01 96.63 8.76 89.31 21.26 89.31 15.01 96.63"/>
          <polygon class="cls-46" points=".72 96.63 -5.53 89.31 6.97 89.31 .72 96.63"/>
          <polygon class="cls-49" points="44.02 104.4 37.77 97.08 50.26 97.08 44.02 104.4"/>
          <polygon class="cls-54" points="22.2 91.1 15.95 98.42 28.45 98.42 22.2 91.1"/>
          <polygon class="cls-53" points="22.2 92.96 18.43 97.38 25.97 97.38 22.2 92.96"/>
          <path class="cls-59" d="m22.08,96.41c1.09,0,1.09-1.64,0-1.64s-1.09,1.64,0,1.64h0Z"/>
          <polygon class="cls-54" points="7.91 91.1 1.66 98.42 14.16 98.42 7.91 91.1"/>
          <polygon class="cls-53" points="7.91 92.96 4.14 97.38 11.68 97.38 7.91 92.96"/>
          <path class="cls-59" d="m7.79,96.41c1.09,0,1.09-1.64,0-1.64s-1.09,1.64,0,1.64h0Z"/>
          <path class="cls-59" d="m36.61,96.35c1.09,0,1.09-1.64,0-1.64s-1.09,1.64,0,1.64h0Z"/>
          <path class="cls-59" d="m65.82,96.35c1.09,0,1.09-1.64,0-1.64s-1.09,1.64,0,1.64h0Z"/>
          <path class="cls-59" d="m82.03,96.35c1.09,0,1.09-1.64,0-1.64s-1.09,1.64,0,1.64h0Z"/>
          <polygon class="cls-54" points="97.28 91.1 91.04 98.42 103.53 98.42 97.28 91.1"/>
          <polygon class="cls-53" points="97.46 92.89 93.69 97.31 101.23 97.31 97.46 92.89"/>
          <path class="cls-59" d="m97.46,96.35c1.09,0,1.09-1.64,0-1.64s-1.09,1.64,0,1.64h0Z"/>
          <path class="cls-59" d="m51.3,96.35c1.09,0,1.09-1.64,0-1.64s-1.09,1.64,0,1.64h0Z"/>
          <polygon class="cls-49" points="29.45 104.4 23.21 97.08 35.7 97.08 29.45 104.4"/>
          <polygon class="cls-49" points="15.01 104.4 8.76 97.08 21.26 97.08 15.01 104.4"/>
          <polygon class="cls-49" points="89.09 104.91 82.85 97.59 95.34 97.59 89.09 104.91"/>
        </g>
        <g>
          <rect class="cls-9" x="-100" y="8.04" width="100" height="15.87"/>
          <polygon class="cls-12" points="-3.27 16.13 2.98 23.45 -9.52 23.45 -3.27 16.13"/>
          <polygon class="cls-54" points="-2.63 8.39 -8.87 15.71 3.62 15.71 -2.63 8.39"/>
          <polygon class="cls-53" points="-2.45 10.19 -6.22 14.6 1.32 14.6 -2.45 10.19"/>
          <rect class="cls-38" x="-100" y="24.62" width="100" height="15.87"/>
          <polygon class="cls-12" points="-3.27 32.71 2.98 40.03 -9.52 40.03 -3.27 32.71"/>
          <polygon class="cls-54" points="-2.63 24.97 -8.87 32.29 3.62 32.29 -2.63 24.97"/>
          <polygon class="cls-53" points="-2.45 26.77 -6.22 31.19 1.32 31.19 -2.45 26.77"/>
          <rect class="cls-29" x="-100" y="40.57" width="100" height="15.87"/>
          <polygon class="cls-12" points="-3.27 48.66 2.98 55.98 -9.52 55.98 -3.27 48.66"/>
          <polygon class="cls-54" points="-2.63 40.93 -8.87 48.25 3.62 48.25 -2.63 40.93"/>
          <polygon class="cls-53" points="-2.45 42.72 -6.22 47.14 1.32 47.14 -2.45 42.72"/>
          <rect class="cls-16" x="-100" y="57.16" width="100" height="15.87"/>
          <polygon class="cls-12" points="-3.27 65.24 2.98 72.56 -9.52 72.56 -3.27 65.24"/>
          <polygon class="cls-54" points="-2.63 57.51 -8.87 64.83 3.62 64.83 -2.63 57.51"/>
          <polygon class="cls-53" points="-2.45 59.3 -6.22 63.72 1.32 63.72 -2.45 59.3"/>
          <rect class="cls-17" x="-100" y="74.28" width="100" height="15.87"/>
          <polygon class="cls-12" points="-3.27 82.37 2.98 89.69 -9.52 89.69 -3.27 82.37"/>
          <polygon class="cls-54" points="-2.63 74.63 -8.87 81.95 3.62 81.95 -2.63 74.63"/>
          <polygon class="cls-53" points="-2.45 76.43 -6.22 80.84 1.32 80.84 -2.45 76.43"/>
          <rect class="cls-21" x="-100.09" y="90.75" width="100" height="15.87"/>
          <polygon class="cls-12" points="-3.36 98.84 2.89 106.16 -9.61 106.16 -3.36 98.84"/>
          <polygon class="cls-54" points="-2.72 91.1 -8.96 98.42 3.53 98.42 -2.72 91.1"/>
          <polygon class="cls-53" points="-2.54 92.89 -6.31 97.31 1.23 97.31 -2.54 92.89"/>
        </g>
        <rect class="cls-37" x="99.91" y="-9.25" width="100" height="15.87"/>
        <g>
          <rect class="cls-20" x="-.09" y="-9.25" width="100" height="15.87"/>
          <polygon class="cls-12" points="36.73 -1.1 42.98 6.22 30.49 6.22 36.73 -1.1"/>
          <polygon class="cls-12" points="51.3 -1.1 57.55 6.22 45.05 6.22 51.3 -1.1"/>
          <polygon class="cls-12" points="65.86 -1.1 72.11 6.22 59.62 6.22 65.86 -1.1"/>
          <polygon class="cls-12" points="81.5 -1.1 87.75 6.22 75.26 6.22 81.5 -1.1"/>
          <polygon class="cls-12" points="96.64 -1.16 102.89 6.16 90.39 6.16 96.64 -1.16"/>
          <polygon class="cls-12" points="22.2 -1.1 28.45 6.22 15.95 6.22 22.2 -1.1"/>
          <polygon class="cls-12" points="7.91 -1.1 14.16 6.22 1.66 6.22 7.91 -1.1"/>
          <polygon class="cls-49" points="58.58 4.4 52.34 -2.92 64.83 -2.92 58.58 4.4"/>
          <polygon class="cls-49" points="73.46 4.4 67.21 -2.92 79.7 -2.92 73.46 4.4"/>
          <polygon class="cls-49" points="44.02 4.4 37.77 -2.92 50.26 -2.92 44.02 4.4"/>
          <polygon class="cls-49" points="29.45 4.4 23.21 -2.92 35.7 -2.92 29.45 4.4"/>
          <polygon class="cls-49" points="15.01 4.4 8.76 -2.92 21.26 -2.92 15.01 4.4"/>
          <polygon class="cls-49" points="89.09 4.91 82.85 -2.41 95.34 -2.41 89.09 4.91"/>
        </g>
        <g>
          <rect class="cls-4" x="-100.09" y="-9.25" width="100" height="15.87"/>
          <polygon class="cls-12" points="-3.36 -1.16 2.89 6.16 -9.61 6.16 -3.36 -1.16"/>
        </g>
      </g>
    </pattern>
    <linearGradient id="Gradiente_sem_nome_1777" data-name="Gradiente sem nome 1777" x1="-7941.5" y1="-23744.29" x2="-7841.5" y2="-23744.29" gradientTransform="translate(8041.5 -23728.31) scale(1 -1)" gradientUnits="userSpaceOnUse">
      <stop offset="0" stop-color="#3361aa"/>
      <stop offset="1" stop-color="#2c4c9b"/>
    </linearGradient>
    <linearGradient id="Gradiente_sem_nome_1777-2" data-name="Gradiente sem nome 1777" y1="-23760.87" y2="-23760.87" xlink:href="#Gradiente_sem_nome_1777"/>
    <linearGradient id="Gradiente_sem_nome_1777-3" data-name="Gradiente sem nome 1777" x1="-7941.5" y1="-23776.82" x2="-7841.5" y2="-23776.82" xlink:href="#Gradiente_sem_nome_1777"/>
    <linearGradient id="Gradiente_sem_nome_1777-4" data-name="Gradiente sem nome 1777" x1="-7941.5" y1="-23793.41" x2="-7841.5" y2="-23793.41" xlink:href="#Gradiente_sem_nome_1777"/>
    <linearGradient id="Gradiente_sem_nome_1777-5" data-name="Gradiente sem nome 1777" x1="-7941.5" y1="-23810.53" x2="-7841.5" y2="-23810.53" xlink:href="#Gradiente_sem_nome_1777"/>
    <linearGradient id="Gradiente_sem_nome_1777-6" data-name="Gradiente sem nome 1777" x1="-7941.59" y1="-23827" x2="-7841.59" y2="-23827" xlink:href="#Gradiente_sem_nome_1777"/>
    <linearGradient id="Gradiente_sem_nome_1777-7" data-name="Gradiente sem nome 1777" x1="-8041.5" x2="-7941.5" xlink:href="#Gradiente_sem_nome_1777"/>
    <linearGradient id="Gradiente_sem_nome_1777-8" data-name="Gradiente sem nome 1777" x1="-8041.5" y1="-23760.87" x2="-7941.5" y2="-23760.87" xlink:href="#Gradiente_sem_nome_1777"/>
    <linearGradient id="Gradiente_sem_nome_1777-9" data-name="Gradiente sem nome 1777" x1="-8041.5" y1="-23776.82" x2="-7941.5" y2="-23776.82" xlink:href="#Gradiente_sem_nome_1777"/>
    <linearGradient id="Gradiente_sem_nome_1777-10" data-name="Gradiente sem nome 1777" x1="-8041.5" y1="-23793.41" x2="-7941.5" y2="-23793.41" xlink:href="#Gradiente_sem_nome_1777"/>
    <linearGradient id="Gradiente_sem_nome_1777-11" data-name="Gradiente sem nome 1777" x1="-8041.5" y1="-23810.53" x2="-7941.5" y2="-23810.53" xlink:href="#Gradiente_sem_nome_1777"/>
    <linearGradient id="Gradiente_sem_nome_1777-12" data-name="Gradiente sem nome 1777" x1="-8041.59" y1="-23827" x2="-7941.59" y2="-23827" xlink:href="#Gradiente_sem_nome_1777"/>
    <linearGradient id="Gradiente_sem_nome_1777-13" data-name="Gradiente sem nome 1777" x1="-8141.5" x2="-8041.5" xlink:href="#Gradiente_sem_nome_1777"/>
    <linearGradient id="Gradiente_sem_nome_1777-14" data-name="Gradiente sem nome 1777" x1="-8141.5" y1="-23760.87" x2="-8041.5" y2="-23760.87" xlink:href="#Gradiente_sem_nome_1777"/>
    <linearGradient id="Gradiente_sem_nome_1777-15" data-name="Gradiente sem nome 1777" x1="-8141.5" y1="-23776.82" x2="-8041.5" y2="-23776.82" xlink:href="#Gradiente_sem_nome_1777"/>
    <linearGradient id="Gradiente_sem_nome_1777-16" data-name="Gradiente sem nome 1777" x1="-8141.5" y1="-23793.41" x2="-8041.5" y2="-23793.41" xlink:href="#Gradiente_sem_nome_1777"/>
    <linearGradient id="Gradiente_sem_nome_1777-17" data-name="Gradiente sem nome 1777" x1="-8141.5" y1="-23810.53" x2="-8041.5" y2="-23810.53" xlink:href="#Gradiente_sem_nome_1777"/>
    <linearGradient id="Gradiente_sem_nome_1777-18" data-name="Gradiente sem nome 1777" x1="-8141.59" y1="-23827" x2="-8041.59" y2="-23827" xlink:href="#Gradiente_sem_nome_1777"/>
    <linearGradient id="Gradiente_sem_nome_1777-19" data-name="Gradiente sem nome 1777" x1="-7941.59" y1="-23727" x2="-7841.59" y2="-23727" xlink:href="#Gradiente_sem_nome_1777"/>
    <linearGradient id="Gradiente_sem_nome_1777-20" data-name="Gradiente sem nome 1777" x1="-8041.59" y1="-23727" x2="-7941.59" y2="-23727" xlink:href="#Gradiente_sem_nome_1777"/>
    <linearGradient id="Gradiente_sem_nome_1777-21" data-name="Gradiente sem nome 1777" x1="-8141.59" y1="-23727" x2="-8041.59" y2="-23727" xlink:href="#Gradiente_sem_nome_1777"/>
    <pattern id="Novo_padrão_4" data-name="Novo padrão 4" x="0" y="0" width="100" height="100" patternTransform="translate(-7338.62 -7317.36) scale(.1)" patternUnits="userSpaceOnUse" viewBox="0 0 100 100">
      <g>
        <rect class="cls-55" width="100" height="100"/>
        <g>
          <rect class="cls-44" x="100" y="8.04" width="100" height="15.87"/>
          <polygon class="cls-46" points="100.81 13.92 94.56 6.6 107.06 6.6 100.81 13.92"/>
          <rect class="cls-22" x="100" y="24.62" width="100" height="15.87"/>
          <polygon class="cls-46" points="100.81 30.5 94.56 23.18 107.06 23.18 100.81 30.5"/>
          <rect class="cls-45" x="100" y="40.57" width="100" height="15.87"/>
          <polygon class="cls-46" points="100.81 46.46 94.56 39.14 107.06 39.14 100.81 46.46"/>
          <rect class="cls-6" x="100" y="57.16" width="100" height="15.87"/>
          <polygon class="cls-46" points="100.81 63.04 94.56 55.72 107.06 55.72 100.81 63.04"/>
          <rect class="cls-27" x="100" y="74.28" width="100" height="15.87"/>
          <polygon class="cls-46" points="100.81 80.16 94.56 72.84 107.06 72.84 100.81 80.16"/>
          <rect class="cls-34" x="99.91" y="90.75" width="100" height="15.87"/>
          <polygon class="cls-46" points="100.72 96.63 94.47 89.31 106.97 89.31 100.72 96.63"/>
        </g>
        <g>
          <rect class="cls-26" x="0" y="8.04" width="100" height="15.87"/>
          <polygon class="cls-12" points="36.82 16.19 43.07 23.51 30.58 23.51 36.82 16.19"/>
          <polygon class="cls-12" points="51.39 16.19 57.64 23.51 45.14 23.51 51.39 16.19"/>
          <polygon class="cls-12" points="65.95 16.19 72.2 23.51 59.71 23.51 65.95 16.19"/>
          <polygon class="cls-12" points="81.59 16.19 87.84 23.51 75.35 23.51 81.59 16.19"/>
          <polygon class="cls-12" points="96.73 16.13 102.98 23.45 90.48 23.45 96.73 16.13"/>
          <polygon class="cls-52" points="65.95 8.33 59.71 15.65 72.2 15.65 65.95 8.33"/>
          <polygon class="cls-52" points="81.94 8.39 75.7 15.71 88.19 15.71 81.94 8.39"/>
          <polygon class="cls-52" points="51.39 8.33 45.14 15.65 57.64 15.65 51.39 8.33"/>
          <polygon class="cls-52" points="36.82 8.33 30.58 15.65 43.07 15.65 36.82 8.33"/>
          <polygon class="cls-48" points="65.91 18.45 62.78 22.12 69.05 22.12 65.91 18.45"/>
          <polygon class="cls-52" points="81.59 18.6 78.46 22.27 84.73 22.27 81.59 18.6"/>
          <polygon class="cls-51" points="51.39 18.54 48.26 22.22 54.52 22.22 51.39 18.54"/>
          <polygon class="cls-51" points="96.73 18.45 93.6 22.12 99.86 22.12 96.73 18.45"/>
          <polygon class="cls-52" points="36.7 18.54 33.57 22.22 39.84 22.22 36.7 18.54"/>
          <polygon class="cls-12" points="22.29 16.19 28.54 23.51 16.04 23.51 22.29 16.19"/>
          <polygon class="cls-48" points="22.17 18.54 19.03 22.22 25.3 22.22 22.17 18.54"/>
          <polygon class="cls-12" points="8 16.19 14.25 23.51 1.75 23.51 8 16.19"/>
          <polygon class="cls-51" points="7.88 18.54 4.74 22.22 11.01 22.22 7.88 18.54"/>
          <polygon class="cls-53" points="65.91 10.19 62.15 14.6 69.68 14.6 65.91 10.19"/>
          <polygon class="cls-53" points="36.82 10.19 33.06 14.6 40.59 14.6 36.82 10.19"/>
          <polygon class="cls-53" points="51.39 9.84 47.62 14.26 55.16 14.26 51.39 9.84"/>
          <polygon class="cls-53" points="82.12 10.19 78.35 14.6 85.89 14.6 82.12 10.19"/>
          <polygon class="cls-46" points="58.67 14.26 52.43 6.94 64.92 6.94 58.67 14.26"/>
          <polygon class="cls-50" points="58.67 21.69 52.43 14.37 64.92 14.37 58.67 21.69"/>
          <polygon class="cls-46" points="74.09 14.26 67.84 6.94 80.34 6.94 74.09 14.26"/>
          <polygon class="cls-50" points="73.55 21.69 67.3 14.37 79.79 14.37 73.55 21.69"/>
          <polygon class="cls-46" points="89.63 14.26 83.38 6.94 95.88 6.94 89.63 14.26"/>
          <polygon class="cls-46" points="44.11 13.92 37.86 6.6 50.35 6.6 44.11 13.92"/>
          <polygon class="cls-46" points="29.54 13.64 23.3 6.32 35.79 6.32 29.54 13.64"/>
          <polygon class="cls-46" points="15.1 13.92 8.85 6.6 21.35 6.6 15.1 13.92"/>
          <polygon class="cls-46" points=".81 13.92 -5.44 6.6 7.06 6.6 .81 13.92"/>
          <polygon class="cls-50" points="44.11 21.69 37.86 14.37 50.35 14.37 44.11 21.69"/>
          <polygon class="cls-52" points="22.29 8.39 16.04 15.71 28.54 15.71 22.29 8.39"/>
          <polygon class="cls-53" points="22.29 10.25 18.52 14.67 26.06 14.67 22.29 10.25"/>
          <path class="cls-58" d="m22.17,13.71c1.09,0,1.09-1.64,0-1.64s-1.09,1.64,0,1.64h0Z"/>
          <polygon class="cls-52" points="8 8.39 1.75 15.71 14.25 15.71 8 8.39"/>
          <polygon class="cls-53" points="8 10.25 4.23 14.67 11.77 14.67 8 10.25"/>
          <path class="cls-58" d="m7.88,13.71c1.09,0,1.09-1.64,0-1.64s-1.09,1.64,0,1.64h0Z"/>
          <path class="cls-58" d="m36.7,13.64c1.09,0,1.09-1.64,0-1.64s-1.09,1.64,0,1.64h0Z"/>
          <path class="cls-58" d="m65.91,13.64c1.09,0,1.09-1.64,0-1.64s-1.09,1.64,0,1.64h0Z"/>
          <path class="cls-58" d="m82.12,13.64c1.09,0,1.09-1.64,0-1.64s-1.09,1.64,0,1.64h0Z"/>
          <polygon class="cls-52" points="97.37 8.39 91.13 15.71 103.62 15.71 97.37 8.39"/>
          <polygon class="cls-53" points="97.55 10.19 93.78 14.6 101.32 14.6 97.55 10.19"/>
          <path class="cls-58" d="m97.55,13.64c1.09,0,1.09-1.64,0-1.64s-1.09,1.64,0,1.64h0Z"/>
          <path class="cls-58" d="m51.39,13.64c1.09,0,1.09-1.64,0-1.64s-1.09,1.64,0,1.64h0Z"/>
          <polygon class="cls-50" points="29.54 21.69 23.3 14.37 35.79 14.37 29.54 21.69"/>
          <polygon class="cls-50" points="15.1 21.69 8.85 14.37 21.35 14.37 15.1 21.69"/>
          <polygon class="cls-50" points="89.18 22.2 82.94 14.88 95.43 14.88 89.18 22.2"/>
          <rect class="cls-33" x="0" y="24.62" width="100" height="15.87"/>
          <polygon class="cls-12" points="36.82 32.77 43.07 40.1 30.58 40.1 36.82 32.77"/>
          <polygon class="cls-12" points="51.39 32.77 57.64 40.1 45.14 40.1 51.39 32.77"/>
          <polygon class="cls-12" points="65.95 32.77 72.2 40.1 59.71 40.1 65.95 32.77"/>
          <polygon class="cls-12" points="81.59 32.77 87.84 40.1 75.35 40.1 81.59 32.77"/>
          <polygon class="cls-12" points="96.73 32.71 102.98 40.03 90.48 40.03 96.73 32.71"/>
          <polygon class="cls-52" points="65.95 24.91 59.71 32.23 72.2 32.23 65.95 24.91"/>
          <polygon class="cls-52" points="81.94 24.97 75.7 32.29 88.19 32.29 81.94 24.97"/>
          <polygon class="cls-52" points="51.39 24.91 45.14 32.23 57.64 32.23 51.39 24.91"/>
          <polygon class="cls-52" points="36.82 24.91 30.58 32.23 43.07 32.23 36.82 24.91"/>
          <polygon class="cls-48" points="65.91 35.03 62.78 38.7 69.05 38.7 65.91 35.03"/>
          <polygon class="cls-52" points="81.59 35.18 78.46 38.86 84.73 38.86 81.59 35.18"/>
          <polygon class="cls-51" points="51.39 35.12 48.26 38.8 54.52 38.8 51.39 35.12"/>
          <polygon class="cls-51" points="96.73 35.03 93.6 38.7 99.86 38.7 96.73 35.03"/>
          <polygon class="cls-52" points="36.7 35.12 33.57 38.8 39.84 38.8 36.7 35.12"/>
          <polygon class="cls-12" points="22.29 32.77 28.54 40.1 16.04 40.1 22.29 32.77"/>
          <polygon class="cls-48" points="22.17 35.12 19.03 38.8 25.3 38.8 22.17 35.12"/>
          <polygon class="cls-12" points="8 32.77 14.25 40.1 1.75 40.1 8 32.77"/>
          <polygon class="cls-51" points="7.88 35.12 4.74 38.8 11.01 38.8 7.88 35.12"/>
          <polygon class="cls-53" points="65.91 26.77 62.15 31.19 69.68 31.19 65.91 26.77"/>
          <polygon class="cls-53" points="36.82 26.77 33.06 31.19 40.59 31.19 36.82 26.77"/>
          <polygon class="cls-53" points="51.39 26.43 47.62 30.84 55.16 30.84 51.39 26.43"/>
          <polygon class="cls-53" points="82.12 26.77 78.35 31.19 85.89 31.19 82.12 26.77"/>
          <polygon class="cls-46" points="58.67 30.84 52.43 23.52 64.92 23.52 58.67 30.84"/>
          <polygon class="cls-50" points="58.67 38.27 52.43 30.95 64.92 30.95 58.67 38.27"/>
          <polygon class="cls-46" points="74.09 30.84 67.84 23.52 80.34 23.52 74.09 30.84"/>
          <polygon class="cls-50" points="73.55 38.27 67.3 30.95 79.79 30.95 73.55 38.27"/>
          <polygon class="cls-46" points="89.63 30.84 83.38 23.52 95.88 23.52 89.63 30.84"/>
          <polygon class="cls-46" points="44.11 30.5 37.86 23.18 50.35 23.18 44.11 30.5"/>
          <polygon class="cls-46" points="29.54 30.22 23.3 22.9 35.79 22.9 29.54 30.22"/>
          <polygon class="cls-46" points="15.1 30.5 8.85 23.18 21.35 23.18 15.1 30.5"/>
          <polygon class="cls-46" points=".81 30.5 -5.44 23.18 7.06 23.18 .81 30.5"/>
          <polygon class="cls-50" points="44.11 38.27 37.86 30.95 50.35 30.95 44.11 38.27"/>
          <polygon class="cls-52" points="22.29 24.97 16.04 32.29 28.54 32.29 22.29 24.97"/>
          <polygon class="cls-53" points="22.29 26.83 18.52 31.25 26.06 31.25 22.29 26.83"/>
          <path class="cls-58" d="m22.17,30.29c1.09,0,1.09-1.64,0-1.64s-1.09,1.64,0,1.64h0Z"/>
          <polygon class="cls-52" points="8 24.97 1.75 32.29 14.25 32.29 8 24.97"/>
          <polygon class="cls-53" points="8 26.83 4.23 31.25 11.77 31.25 8 26.83"/>
          <path class="cls-58" d="m7.88,30.29c1.09,0,1.09-1.64,0-1.64s-1.09,1.64,0,1.64h0Z"/>
          <path class="cls-58" d="m36.7,30.22c1.09,0,1.09-1.64,0-1.64s-1.09,1.64,0,1.64h0Z"/>
          <path class="cls-58" d="m65.91,30.22c1.09,0,1.09-1.64,0-1.64s-1.09,1.64,0,1.64h0Z"/>
          <path class="cls-58" d="m82.12,30.22c1.09,0,1.09-1.64,0-1.64s-1.09,1.64,0,1.64h0Z"/>
          <polygon class="cls-52" points="97.37 24.97 91.13 32.29 103.62 32.29 97.37 24.97"/>
          <polygon class="cls-53" points="97.55 26.77 93.78 31.19 101.32 31.19 97.55 26.77"/>
          <path class="cls-58" d="m97.55,30.22c1.09,0,1.09-1.64,0-1.64s-1.09,1.64,0,1.64h0Z"/>
          <path class="cls-58" d="m51.39,30.22c1.09,0,1.09-1.64,0-1.64s-1.09,1.64,0,1.64h0Z"/>
          <polygon class="cls-50" points="29.54 38.27 23.3 30.95 35.79 30.95 29.54 38.27"/>
          <polygon class="cls-50" points="15.1 38.27 8.85 30.95 21.35 30.95 15.1 38.27"/>
          <polygon class="cls-50" points="89.18 38.78 82.94 31.46 95.43 31.46 89.18 38.78"/>
          <rect class="cls-1" y="40.57" width="100" height="15.87"/>
          <polygon class="cls-12" points="36.82 48.73 43.07 56.05 30.58 56.05 36.82 48.73"/>
          <polygon class="cls-12" points="51.39 48.73 57.64 56.05 45.14 56.05 51.39 48.73"/>
          <polygon class="cls-12" points="65.95 48.73 72.2 56.05 59.71 56.05 65.95 48.73"/>
          <polygon class="cls-12" points="81.59 48.73 87.84 56.05 75.35 56.05 81.59 48.73"/>
          <polygon class="cls-12" points="96.73 48.66 102.98 55.98 90.48 55.98 96.73 48.66"/>
          <polygon class="cls-52" points="65.95 40.86 59.71 48.18 72.2 48.18 65.95 40.86"/>
          <polygon class="cls-52" points="81.94 40.93 75.7 48.25 88.19 48.25 81.94 40.93"/>
          <polygon class="cls-52" points="51.39 40.86 45.14 48.18 57.64 48.18 51.39 40.86"/>
          <polygon class="cls-52" points="36.82 40.86 30.58 48.18 43.07 48.18 36.82 40.86"/>
          <polygon class="cls-48" points="65.91 50.98 62.78 54.65 69.05 54.65 65.91 50.98"/>
          <polygon class="cls-52" points="81.59 51.13 78.46 54.81 84.73 54.81 81.59 51.13"/>
          <polygon class="cls-51" points="51.39 51.08 48.26 54.75 54.52 54.75 51.39 51.08"/>
          <polygon class="cls-51" points="96.73 50.98 93.6 54.65 99.86 54.65 96.73 50.98"/>
          <polygon class="cls-52" points="36.7 51.08 33.57 54.75 39.84 54.75 36.7 51.08"/>
          <polygon class="cls-12" points="22.29 48.73 28.54 56.05 16.04 56.05 22.29 48.73"/>
          <polygon class="cls-48" points="22.17 51.08 19.03 54.75 25.3 54.75 22.17 51.08"/>
          <polygon class="cls-12" points="8 48.73 14.25 56.05 1.75 56.05 8 48.73"/>
          <polygon class="cls-51" points="7.88 51.08 4.74 54.75 11.01 54.75 7.88 51.08"/>
          <polygon class="cls-53" points="65.91 42.72 62.15 47.14 69.68 47.14 65.91 42.72"/>
          <polygon class="cls-53" points="36.82 42.72 33.06 47.14 40.59 47.14 36.82 42.72"/>
          <polygon class="cls-53" points="51.39 42.38 47.62 46.79 55.16 46.79 51.39 42.38"/>
          <polygon class="cls-53" points="82.12 42.72 78.35 47.14 85.89 47.14 82.12 42.72"/>
          <polygon class="cls-46" points="58.67 46.79 52.43 39.47 64.92 39.47 58.67 46.79"/>
          <polygon class="cls-50" points="58.67 54.23 52.43 46.91 64.92 46.91 58.67 54.23"/>
          <polygon class="cls-46" points="74.09 46.79 67.84 39.47 80.34 39.47 74.09 46.79"/>
          <polygon class="cls-50" points="73.55 54.23 67.3 46.91 79.79 46.91 73.55 54.23"/>
          <polygon class="cls-46" points="89.63 46.79 83.38 39.47 95.88 39.47 89.63 46.79"/>
          <polygon class="cls-46" points="44.11 46.46 37.86 39.14 50.35 39.14 44.11 46.46"/>
          <polygon class="cls-46" points="29.54 46.18 23.3 38.86 35.79 38.86 29.54 46.18"/>
          <polygon class="cls-46" points="15.1 46.46 8.85 39.14 21.35 39.14 15.1 46.46"/>
          <polygon class="cls-46" points=".81 46.46 -5.44 39.14 7.06 39.14 .81 46.46"/>
          <polygon class="cls-50" points="44.11 54.23 37.86 46.91 50.35 46.91 44.11 54.23"/>
          <polygon class="cls-52" points="22.29 40.93 16.04 48.25 28.54 48.25 22.29 40.93"/>
          <polygon class="cls-53" points="22.29 42.78 18.52 47.2 26.06 47.2 22.29 42.78"/>
          <path class="cls-58" d="m22.17,46.24c1.09,0,1.09-1.64,0-1.64s-1.09,1.64,0,1.64h0Z"/>
          <polygon class="cls-52" points="8 40.93 1.75 48.25 14.25 48.25 8 40.93"/>
          <polygon class="cls-53" points="8 42.78 4.23 47.2 11.77 47.2 8 42.78"/>
          <path class="cls-58" d="m7.88,46.24c1.09,0,1.09-1.64,0-1.64s-1.09,1.64,0,1.64h0Z"/>
          <path class="cls-58" d="m36.7,46.18c1.09,0,1.09-1.64,0-1.64s-1.09,1.64,0,1.64h0Z"/>
          <path class="cls-58" d="m65.91,46.18c1.09,0,1.09-1.64,0-1.64s-1.09,1.64,0,1.64h0Z"/>
          <path class="cls-58" d="m82.12,46.18c1.09,0,1.09-1.64,0-1.64s-1.09,1.64,0,1.64h0Z"/>
          <polygon class="cls-52" points="97.37 40.93 91.13 48.25 103.62 48.25 97.37 40.93"/>
          <polygon class="cls-53" points="97.55 42.72 93.78 47.14 101.32 47.14 97.55 42.72"/>
          <path class="cls-58" d="m97.55,46.18c1.09,0,1.09-1.64,0-1.64s-1.09,1.64,0,1.64h0Z"/>
          <path class="cls-58" d="m51.39,46.18c1.09,0,1.09-1.64,0-1.64s-1.09,1.64,0,1.64h0Z"/>
          <polygon class="cls-50" points="29.54 54.23 23.3 46.91 35.79 46.91 29.54 54.23"/>
          <polygon class="cls-50" points="15.1 54.23 8.85 46.91 21.35 46.91 15.1 54.23"/>
          <polygon class="cls-50" points="89.18 54.74 82.94 47.42 95.43 47.42 89.18 54.74"/>
          <rect class="cls-5" y="57.16" width="100" height="15.87"/>
          <polygon class="cls-12" points="36.82 65.31 43.07 72.63 30.58 72.63 36.82 65.31"/>
          <polygon class="cls-12" points="51.39 65.31 57.64 72.63 45.14 72.63 51.39 65.31"/>
          <polygon class="cls-12" points="65.95 65.31 72.2 72.63 59.71 72.63 65.95 65.31"/>
          <polygon class="cls-12" points="81.59 65.31 87.84 72.63 75.35 72.63 81.59 65.31"/>
          <polygon class="cls-12" points="96.73 65.24 102.98 72.56 90.48 72.56 96.73 65.24"/>
          <polygon class="cls-52" points="65.95 57.44 59.71 64.76 72.2 64.76 65.95 57.44"/>
          <polygon class="cls-52" points="81.94 57.51 75.7 64.83 88.19 64.83 81.94 57.51"/>
          <polygon class="cls-52" points="51.39 57.44 45.14 64.76 57.64 64.76 51.39 57.44"/>
          <polygon class="cls-52" points="36.82 57.44 30.58 64.76 43.07 64.76 36.82 57.44"/>
          <polygon class="cls-48" points="65.91 67.56 62.78 71.23 69.05 71.23 65.91 67.56"/>
          <polygon class="cls-52" points="81.59 67.71 78.46 71.39 84.73 71.39 81.59 67.71"/>
          <polygon class="cls-51" points="51.39 67.66 48.26 71.33 54.52 71.33 51.39 67.66"/>
          <polygon class="cls-51" points="96.73 67.56 93.6 71.23 99.86 71.23 96.73 67.56"/>
          <polygon class="cls-52" points="36.7 67.66 33.57 71.33 39.84 71.33 36.7 67.66"/>
          <polygon class="cls-12" points="22.29 65.31 28.54 72.63 16.04 72.63 22.29 65.31"/>
          <polygon class="cls-48" points="22.17 67.66 19.03 71.33 25.3 71.33 22.17 67.66"/>
          <polygon class="cls-12" points="8 65.31 14.25 72.63 1.75 72.63 8 65.31"/>
          <polygon class="cls-51" points="7.88 67.66 4.74 71.33 11.01 71.33 7.88 67.66"/>
          <polygon class="cls-53" points="65.91 59.3 62.15 63.72 69.68 63.72 65.91 59.3"/>
          <polygon class="cls-53" points="36.82 59.3 33.06 63.72 40.59 63.72 36.82 59.3"/>
          <polygon class="cls-53" points="51.39 58.96 47.62 63.38 55.16 63.38 51.39 58.96"/>
          <polygon class="cls-53" points="82.12 59.3 78.35 63.72 85.89 63.72 82.12 59.3"/>
          <polygon class="cls-46" points="58.67 63.38 52.43 56.05 64.92 56.05 58.67 63.38"/>
          <polygon class="cls-50" points="58.67 70.81 52.43 63.49 64.92 63.49 58.67 70.81"/>
          <polygon class="cls-46" points="74.09 63.38 67.84 56.05 80.34 56.05 74.09 63.38"/>
          <polygon class="cls-50" points="73.55 70.81 67.3 63.49 79.79 63.49 73.55 70.81"/>
          <polygon class="cls-46" points="89.63 63.38 83.38 56.05 95.88 56.05 89.63 63.38"/>
          <polygon class="cls-46" points="44.11 63.04 37.86 55.72 50.35 55.72 44.11 63.04"/>
          <polygon class="cls-46" points="29.54 62.76 23.3 55.44 35.79 55.44 29.54 62.76"/>
          <polygon class="cls-46" points="15.1 63.04 8.85 55.72 21.35 55.72 15.1 63.04"/>
          <polygon class="cls-46" points=".81 63.04 -5.44 55.72 7.06 55.72 .81 63.04"/>
          <polygon class="cls-50" points="44.11 70.81 37.86 63.49 50.35 63.49 44.11 70.81"/>
          <polygon class="cls-52" points="22.29 57.51 16.04 64.83 28.54 64.83 22.29 57.51"/>
          <polygon class="cls-53" points="22.29 59.37 18.52 63.78 26.06 63.78 22.29 59.37"/>
          <path class="cls-58" d="m22.17,62.82c1.09,0,1.09-1.64,0-1.64s-1.09,1.64,0,1.64h0Z"/>
          <polygon class="cls-52" points="8 57.51 1.75 64.83 14.25 64.83 8 57.51"/>
          <polygon class="cls-53" points="8 59.37 4.23 63.78 11.77 63.78 8 59.37"/>
          <path class="cls-58" d="m7.88,62.82c1.09,0,1.09-1.64,0-1.64s-1.09,1.64,0,1.64h0Z"/>
          <path class="cls-58" d="m36.7,62.76c1.09,0,1.09-1.64,0-1.64s-1.09,1.64,0,1.64h0Z"/>
          <path class="cls-58" d="m65.91,62.76c1.09,0,1.09-1.64,0-1.64s-1.09,1.64,0,1.64h0Z"/>
          <path class="cls-58" d="m82.12,62.76c1.09,0,1.09-1.64,0-1.64s-1.09,1.64,0,1.64h0Z"/>
          <polygon class="cls-52" points="97.37 57.51 91.13 64.83 103.62 64.83 97.37 57.51"/>
          <polygon class="cls-53" points="97.55 59.3 93.78 63.72 101.32 63.72 97.55 59.3"/>
          <path class="cls-58" d="m97.55,62.76c1.09,0,1.09-1.64,0-1.64s-1.09,1.64,0,1.64h0Z"/>
          <path class="cls-58" d="m51.39,62.76c1.09,0,1.09-1.64,0-1.64s-1.09,1.64,0,1.64h0Z"/>
          <polygon class="cls-50" points="29.54 70.81 23.3 63.49 35.79 63.49 29.54 70.81"/>
          <polygon class="cls-50" points="15.1 70.81 8.85 63.49 21.35 63.49 15.1 70.81"/>
          <polygon class="cls-50" points="89.18 71.32 82.94 64 95.43 64 89.18 71.32"/>
          <rect class="cls-10" x="0" y="74.28" width="100" height="15.87"/>
          <polygon class="cls-12" points="36.82 82.43 43.07 89.75 30.58 89.75 36.82 82.43"/>
          <polygon class="cls-12" points="51.39 82.43 57.64 89.75 45.14 89.75 51.39 82.43"/>
          <polygon class="cls-12" points="65.95 82.43 72.2 89.75 59.71 89.75 65.95 82.43"/>
          <polygon class="cls-12" points="81.59 82.43 87.84 89.75 75.35 89.75 81.59 82.43"/>
          <polygon class="cls-12" points="96.73 82.37 102.98 89.69 90.48 89.69 96.73 82.37"/>
          <polygon class="cls-52" points="65.95 74.57 59.71 81.89 72.2 81.89 65.95 74.57"/>
          <polygon class="cls-52" points="81.94 74.63 75.7 81.95 88.19 81.95 81.94 74.63"/>
          <polygon class="cls-52" points="51.39 74.57 45.14 81.89 57.64 81.89 51.39 74.57"/>
          <polygon class="cls-52" points="36.82 74.57 30.58 81.89 43.07 81.89 36.82 74.57"/>
          <polygon class="cls-48" points="65.91 84.69 62.78 88.36 69.05 88.36 65.91 84.69"/>
          <polygon class="cls-52" points="81.59 84.84 78.46 88.51 84.73 88.51 81.59 84.84"/>
          <polygon class="cls-51" points="51.39 84.78 48.26 88.46 54.52 88.46 51.39 84.78"/>
          <polygon class="cls-51" points="96.73 84.69 93.6 88.36 99.86 88.36 96.73 84.69"/>
          <polygon class="cls-52" points="36.7 84.78 33.57 88.46 39.84 88.46 36.7 84.78"/>
          <polygon class="cls-12" points="22.29 82.43 28.54 89.75 16.04 89.75 22.29 82.43"/>
          <polygon class="cls-48" points="22.17 84.78 19.03 88.46 25.3 88.46 22.17 84.78"/>
          <polygon class="cls-12" points="8 82.43 14.25 89.75 1.75 89.75 8 82.43"/>
          <polygon class="cls-51" points="7.88 84.78 4.74 88.46 11.01 88.46 7.88 84.78"/>
          <polygon class="cls-53" points="65.91 76.43 62.15 80.84 69.68 80.84 65.91 76.43"/>
          <polygon class="cls-53" points="36.82 76.43 33.06 80.84 40.59 80.84 36.82 76.43"/>
          <polygon class="cls-53" points="51.39 76.09 47.62 80.5 55.16 80.5 51.39 76.09"/>
          <polygon class="cls-53" points="82.12 76.43 78.35 80.84 85.89 80.84 82.12 76.43"/>
          <polygon class="cls-46" points="58.67 80.5 52.43 73.18 64.92 73.18 58.67 80.5"/>
          <polygon class="cls-50" points="58.67 87.93 52.43 80.61 64.92 80.61 58.67 87.93"/>
          <polygon class="cls-46" points="74.09 80.5 67.84 73.18 80.34 73.18 74.09 80.5"/>
          <polygon class="cls-50" points="73.55 87.93 67.3 80.61 79.79 80.61 73.55 87.93"/>
          <polygon class="cls-46" points="89.63 80.5 83.38 73.18 95.88 73.18 89.63 80.5"/>
          <polygon class="cls-46" points="44.11 80.16 37.86 72.84 50.35 72.84 44.11 80.16"/>
          <polygon class="cls-46" points="29.54 79.88 23.3 72.56 35.79 72.56 29.54 79.88"/>
          <polygon class="cls-46" points="15.1 80.16 8.85 72.84 21.35 72.84 15.1 80.16"/>
          <polygon class="cls-46" points=".81 80.16 -5.44 72.84 7.06 72.84 .81 80.16"/>
          <polygon class="cls-50" points="44.11 87.93 37.86 80.61 50.35 80.61 44.11 87.93"/>
          <polygon class="cls-52" points="22.29 74.63 16.04 81.95 28.54 81.95 22.29 74.63"/>
          <polygon class="cls-53" points="22.29 76.49 18.52 80.91 26.06 80.91 22.29 76.49"/>
          <path class="cls-58" d="m22.17,79.95c1.09,0,1.09-1.64,0-1.64s-1.09,1.64,0,1.64h0Z"/>
          <polygon class="cls-52" points="8 74.63 1.75 81.95 14.25 81.95 8 74.63"/>
          <polygon class="cls-53" points="8 76.49 4.23 80.91 11.77 80.91 8 76.49"/>
          <path class="cls-58" d="m7.88,79.95c1.09,0,1.09-1.64,0-1.64s-1.09,1.64,0,1.64h0Z"/>
          <path class="cls-58" d="m36.7,79.88c1.09,0,1.09-1.64,0-1.64s-1.09,1.64,0,1.64h0Z"/>
          <path class="cls-58" d="m65.91,79.88c1.09,0,1.09-1.64,0-1.64s-1.09,1.64,0,1.64h0Z"/>
          <path class="cls-58" d="m82.12,79.88c1.09,0,1.09-1.64,0-1.64s-1.09,1.64,0,1.64h0Z"/>
          <polygon class="cls-52" points="97.37 74.63 91.13 81.95 103.62 81.95 97.37 74.63"/>
          <polygon class="cls-53" points="97.55 76.43 93.78 80.84 101.32 80.84 97.55 76.43"/>
          <path class="cls-58" d="m97.55,79.88c1.09,0,1.09-1.64,0-1.64s-1.09,1.64,0,1.64h0Z"/>
          <path class="cls-58" d="m51.39,79.88c1.09,0,1.09-1.64,0-1.64s-1.09,1.64,0,1.64h0Z"/>
          <polygon class="cls-50" points="29.54 87.93 23.3 80.61 35.79 80.61 29.54 87.93"/>
          <polygon class="cls-50" points="15.1 87.93 8.85 80.61 21.35 80.61 15.1 87.93"/>
          <polygon class="cls-50" points="89.18 88.44 82.94 81.12 95.43 81.12 89.18 88.44"/>
          <rect class="cls-11" x="-.09" y="90.75" width="100" height="15.87"/>
          <polygon class="cls-12" points="36.73 98.9 42.98 106.22 30.49 106.22 36.73 98.9"/>
          <polygon class="cls-12" points="51.3 98.9 57.55 106.22 45.05 106.22 51.3 98.9"/>
          <polygon class="cls-12" points="65.86 98.9 72.11 106.22 59.62 106.22 65.86 98.9"/>
          <polygon class="cls-12" points="81.5 98.9 87.75 106.22 75.26 106.22 81.5 98.9"/>
          <polygon class="cls-12" points="96.64 98.84 102.89 106.16 90.39 106.16 96.64 98.84"/>
          <polygon class="cls-52" points="65.86 91.04 59.62 98.36 72.11 98.36 65.86 91.04"/>
          <polygon class="cls-52" points="81.85 91.1 75.61 98.42 88.1 98.42 81.85 91.1"/>
          <polygon class="cls-52" points="51.3 91.04 45.05 98.36 57.55 98.36 51.3 91.04"/>
          <polygon class="cls-52" points="36.73 91.04 30.49 98.36 42.98 98.36 36.73 91.04"/>
          <polygon class="cls-12" points="22.2 98.9 28.45 106.22 15.95 106.22 22.2 98.9"/>
          <polygon class="cls-12" points="7.91 98.9 14.16 106.22 1.66 106.22 7.91 98.9"/>
          <polygon class="cls-53" points="65.82 92.89 62.06 97.31 69.59 97.31 65.82 92.89"/>
          <polygon class="cls-53" points="36.73 92.89 32.97 97.31 40.5 97.31 36.73 92.89"/>
          <polygon class="cls-53" points="51.3 92.55 47.53 96.97 55.07 96.97 51.3 92.55"/>
          <polygon class="cls-53" points="82.03 92.89 78.26 97.31 85.8 97.31 82.03 92.89"/>
          <polygon class="cls-46" points="58.58 96.97 52.34 89.65 64.83 89.65 58.58 96.97"/>
          <polygon class="cls-50" points="58.58 104.4 52.34 97.08 64.83 97.08 58.58 104.4"/>
          <polygon class="cls-46" points="74 96.97 67.75 89.65 80.25 89.65 74 96.97"/>
          <polygon class="cls-50" points="73.46 104.4 67.21 97.08 79.7 97.08 73.46 104.4"/>
          <polygon class="cls-46" points="89.54 96.97 83.29 89.65 95.79 89.65 89.54 96.97"/>
          <polygon class="cls-46" points="44.02 96.63 37.77 89.31 50.26 89.31 44.02 96.63"/>
          <polygon class="cls-46" points="29.45 96.35 23.21 89.03 35.7 89.03 29.45 96.35"/>
          <polygon class="cls-46" points="15.01 96.63 8.76 89.31 21.26 89.31 15.01 96.63"/>
          <polygon class="cls-46" points=".72 96.63 -5.53 89.31 6.97 89.31 .72 96.63"/>
          <polygon class="cls-50" points="44.02 104.4 37.77 97.08 50.26 97.08 44.02 104.4"/>
          <polygon class="cls-52" points="22.2 91.1 15.95 98.42 28.45 98.42 22.2 91.1"/>
          <polygon class="cls-53" points="22.2 92.96 18.43 97.38 25.97 97.38 22.2 92.96"/>
          <path class="cls-58" d="m22.08,96.41c1.09,0,1.09-1.64,0-1.64s-1.09,1.64,0,1.64h0Z"/>
          <polygon class="cls-52" points="7.91 91.1 1.66 98.42 14.16 98.42 7.91 91.1"/>
          <polygon class="cls-53" points="7.91 92.96 4.14 97.38 11.68 97.38 7.91 92.96"/>
          <path class="cls-58" d="m7.79,96.41c1.09,0,1.09-1.64,0-1.64s-1.09,1.64,0,1.64h0Z"/>
          <path class="cls-58" d="m36.61,96.35c1.09,0,1.09-1.64,0-1.64s-1.09,1.64,0,1.64h0Z"/>
          <path class="cls-58" d="m65.82,96.35c1.09,0,1.09-1.64,0-1.64s-1.09,1.64,0,1.64h0Z"/>
          <path class="cls-58" d="m82.03,96.35c1.09,0,1.09-1.64,0-1.64s-1.09,1.64,0,1.64h0Z"/>
          <polygon class="cls-52" points="97.28 91.1 91.04 98.42 103.53 98.42 97.28 91.1"/>
          <polygon class="cls-53" points="97.46 92.89 93.69 97.31 101.23 97.31 97.46 92.89"/>
          <path class="cls-58" d="m97.46,96.35c1.09,0,1.09-1.64,0-1.64s-1.09,1.64,0,1.64h0Z"/>
          <path class="cls-58" d="m51.3,96.35c1.09,0,1.09-1.64,0-1.64s-1.09,1.64,0,1.64h0Z"/>
          <polygon class="cls-50" points="29.45 104.4 23.21 97.08 35.7 97.08 29.45 104.4"/>
          <polygon class="cls-50" points="15.01 104.4 8.76 97.08 21.26 97.08 15.01 104.4"/>
          <polygon class="cls-50" points="89.09 104.91 82.85 97.59 95.34 97.59 89.09 104.91"/>
        </g>
        <g>
          <rect class="cls-35" x="-100" y="8.04" width="100" height="15.87"/>
          <polygon class="cls-12" points="-3.27 16.13 2.98 23.45 -9.52 23.45 -3.27 16.13"/>
          <polygon class="cls-52" points="-2.63 8.39 -8.87 15.71 3.62 15.71 -2.63 8.39"/>
          <polygon class="cls-53" points="-2.45 10.19 -6.22 14.6 1.32 14.6 -2.45 10.19"/>
          <rect class="cls-19" x="-100" y="24.62" width="100" height="15.87"/>
          <polygon class="cls-12" points="-3.27 32.71 2.98 40.03 -9.52 40.03 -3.27 32.71"/>
          <polygon class="cls-52" points="-2.63 24.97 -8.87 32.29 3.62 32.29 -2.63 24.97"/>
          <polygon class="cls-53" points="-2.45 26.77 -6.22 31.19 1.32 31.19 -2.45 26.77"/>
          <rect class="cls-8" x="-100" y="40.57" width="100" height="15.87"/>
          <polygon class="cls-12" points="-3.27 48.66 2.98 55.98 -9.52 55.98 -3.27 48.66"/>
          <polygon class="cls-52" points="-2.63 40.93 -8.87 48.25 3.62 48.25 -2.63 40.93"/>
          <polygon class="cls-53" points="-2.45 42.72 -6.22 47.14 1.32 47.14 -2.45 42.72"/>
          <rect class="cls-43" x="-100" y="57.16" width="100" height="15.87"/>
          <polygon class="cls-12" points="-3.27 65.24 2.98 72.56 -9.52 72.56 -3.27 65.24"/>
          <polygon class="cls-52" points="-2.63 57.51 -8.87 64.83 3.62 64.83 -2.63 57.51"/>
          <polygon class="cls-53" points="-2.45 59.3 -6.22 63.72 1.32 63.72 -2.45 59.3"/>
          <rect class="cls-32" x="-100" y="74.28" width="100" height="15.87"/>
          <polygon class="cls-12" points="-3.27 82.37 2.98 89.69 -9.52 89.69 -3.27 82.37"/>
          <polygon class="cls-52" points="-2.63 74.63 -8.87 81.95 3.62 81.95 -2.63 74.63"/>
          <polygon class="cls-53" points="-2.45 76.43 -6.22 80.84 1.32 80.84 -2.45 76.43"/>
          <rect class="cls-25" x="-100.09" y="90.75" width="100" height="15.87"/>
          <polygon class="cls-12" points="-3.36 98.84 2.89 106.16 -9.61 106.16 -3.36 98.84"/>
          <polygon class="cls-52" points="-2.72 91.1 -8.96 98.42 3.53 98.42 -2.72 91.1"/>
          <polygon class="cls-53" points="-2.54 92.89 -6.31 97.31 1.23 97.31 -2.54 92.89"/>
        </g>
        <rect class="cls-18" x="99.91" y="-9.25" width="100" height="15.87"/>
        <g>
          <rect class="cls-28" x="-.09" y="-9.25" width="100" height="15.87"/>
          <polygon class="cls-12" points="36.73 -1.1 42.98 6.22 30.49 6.22 36.73 -1.1"/>
          <polygon class="cls-12" points="51.3 -1.1 57.55 6.22 45.05 6.22 51.3 -1.1"/>
          <polygon class="cls-12" points="65.86 -1.1 72.11 6.22 59.62 6.22 65.86 -1.1"/>
          <polygon class="cls-12" points="81.5 -1.1 87.75 6.22 75.26 6.22 81.5 -1.1"/>
          <polygon class="cls-12" points="96.64 -1.16 102.89 6.16 90.39 6.16 96.64 -1.16"/>
          <polygon class="cls-12" points="22.2 -1.1 28.45 6.22 15.95 6.22 22.2 -1.1"/>
          <polygon class="cls-12" points="7.91 -1.1 14.16 6.22 1.66 6.22 7.91 -1.1"/>
          <polygon class="cls-50" points="58.58 4.4 52.34 -2.92 64.83 -2.92 58.58 4.4"/>
          <polygon class="cls-50" points="73.46 4.4 67.21 -2.92 79.7 -2.92 73.46 4.4"/>
          <polygon class="cls-50" points="44.02 4.4 37.77 -2.92 50.26 -2.92 44.02 4.4"/>
          <polygon class="cls-50" points="29.45 4.4 23.21 -2.92 35.7 -2.92 29.45 4.4"/>
          <polygon class="cls-50" points="15.01 4.4 8.76 -2.92 21.26 -2.92 15.01 4.4"/>
          <polygon class="cls-50" points="89.09 4.91 82.85 -2.41 95.34 -2.41 89.09 4.91"/>
        </g>
        <g>
          <rect class="cls-2" x="-100.09" y="-9.25" width="100" height="15.87"/>
          <polygon class="cls-12" points="-3.36 -1.16 2.89 6.16 -9.61 6.16 -3.36 -1.16"/>
        </g>
      </g>
    </pattern>
  </defs>
  <g>
    <path class="cls-60" d="m50.04,45.86c-3.11,3.11-7.04,5.1-11.38,5.77-6.44.99-13.03-1.17-17.63-5.77-4.6-4.6-6.76-11.19-5.77-17.63.66-4.33,2.66-8.27,5.77-11.38,4.62-4.62,11.23-6.77,17.69-5.76.89.14,1.5.97,1.36,1.86-.14.89-.97,1.5-1.86,1.36-5.43-.85-10.99.96-14.87,4.84-2.61,2.61-2.12,6.17-2.12,6.17l19.68,19.68s4.22,1.16,6.83-1.45c6.34-6.34,6.7-16.41,1.1-23.18l-12.14,12.14c-.64.64-1.67.64-2.31,0s-.64-1.67,0-2.31l13.35-13.35c.64-.64,1.67-.64,2.31,0,8,8,8,21.01,0,29Z"/>
    <path class="cls-15" d="m63.32,26.21l-2.57-.02c-.62-3.02-1.78-5.84-3.36-8.37l1.93-1.91c1.02-1.02,1.03-2.67.01-3.69l-4.15-4.18c-1.02-1.02-2.67-1.03-3.69-.01l-1.91,1.89c-2.48-1.6-5.26-2.78-8.23-3.44v-2.86c0-1.44-1.17-2.61-2.61-2.61h-5.89c-1.44,0-2.61,1.17-2.61,2.61v2.86c-2.69.6-5.22,1.62-7.52,2.99l-2.09-2.2c-1-1.04-2.65-1.08-3.69-.09l-4.26,4.06c-1.04,1-1.08,2.65-.09,3.69l2.07,2.18c-1.61,2.39-2.82,5.06-3.55,7.93l-3.14-.07c-1.44-.03-2.64,1.12-2.67,2.56l-.12,5.89c-.03,1.44,1.12,2.64,2.56,2.67l3.05.06c.56,2.91,1.61,5.65,3.07,8.12l-2.25,2.17c-1.04,1-1.07,2.66-.06,3.69l4.09,4.24c1,1.04,2.66,1.07,3.69.06l2.12-2.05c2.4,1.64,5.1,2.89,7.99,3.63l-.04,2.97c-.02,1.44,1.13,2.63,2.58,2.65l5.89.08c1.44.02,2.63-1.13,2.65-2.58l.04-2.77c3-.56,5.81-1.65,8.34-3.17l1.95,1.99c1.01,1.03,2.66,1.05,3.69.04l4.21-4.12c1.03-1.01,1.05-2.66.04-3.69l-1.83-1.86c1.67-2.48,2.91-5.27,3.63-8.26l2.68.02c1.44,0,2.62-1.15,2.63-2.59l.04-5.89c0-1.44-1.15-2.62-2.59-2.63Z"/>
  </g>
  <g>
    <path class="cls-3" d="m21.24,69.14v6.01c0,1.79,1.45,3.23,3.23,3.23h0c1.79,0,3.23-1.45,3.23-3.23v-6.01"/>
    <polyline class="cls-47" points="14 73.76 15.33 73.76 16.64 74.98 16.64 77.09 15.65 78.38 11.03 78.38 10.17 77.18 10.17 70.18 11.03 69.14 15.65 69.14 16.41 69.89"/>
    <g>
      <polyline class="cls-3" points="32.31 69.14 35.54 69.14 38.77 69.14"/>
      <line class="cls-3" x1="35.54" y1="78.38" x2="35.54" y2="69.14"/>
      <line class="cls-3" x1="32.31" y1="78.38" x2="38.77" y2="78.38"/>
    </g>
    <polyline class="cls-47" points="43.37 69.14 49.84 69.14 43.37 78.38 49.84 78.38"/>
    <rect class="cls-3" x="54.44" y="69.14" width="6.47" height="9.24" rx="3.23" ry="3.23"/>
  </g>
  <text class="cls-57" transform="translate(0 88.33)"><tspan x="0" y="0">INFORMÁTICA E SERVIÇOS</tspan></text>
</svg>